<svg xmlns="http://www.w3.org/2000/svg" viewBox="0 0 128 128">
  <rect width="128" height="128" rx="12" fill="#ff2d20"/>
  <path d="M34.2 47.2c.2-.6.8-1 1.4-1h12.6c.6 0 1.2.4 1.4 1l16 44.8c.2.6 0 1.2-.4 1.6-.4.4-1 .4-1.4.2L50.4 86 37 93.8c-.4.2-1 .2-1.4-.2-.4-.4-.6-1-.4-1.6l-1-44.8zm9.8 8v28l8.4-5.2-8.4-22.8zM68.8 42c0-.8.6-1.4 1.4-1.4h18c.8 0 1.4.6 1.4 1.4v6c0 .8-.6 1.4-1.4 1.4h-18c-.8 0-1.4-.6-1.4-1.4v-6zm0 19.2c0-.8.6-1.4 1.4-1.4h18c.8 0 1.4.6 1.4 1.4v6c0 .8-.6 1.4-1.4 1.4h-18c-.8 0-1.4-.6-1.4-1.4v-6z" fill="#fff"/>
</svg>
