<svg xmlns="http://www.w3.org/2000/svg" xmlns:xlink="http://www.w3.org/1999/xlink" width="161" height="202" viewBox="0 0 161 202">
  <defs>
    <linearGradient id="linear-gradient" x1="0.5" x2="2.503" y2="1.976" gradientUnits="objectBoundingBox">
      <stop offset="0" stop-color="#a46f74"/>
      <stop offset="1" stop-color="#52383a"/>
    </linearGradient>
    <linearGradient id="linear-gradient-2" x1="1.389" y1="0.238" x2="0.5" y2="1" gradientUnits="objectBoundingBox">
      <stop offset="0" stop-color="#fff" stop-opacity="0"/>
      <stop offset="1" stop-color="#fff" stop-opacity="0.169"/>
    </linearGradient>
  </defs>
  <g id="Gruppe_15" data-name="Gruppe 15" transform="translate(-1449.725 -599)">
    <g id="Gruppe_14" data-name="Gruppe 14" transform="translate(1449.725 599)">
      <g id="Gruppe_6" data-name="Gruppe 6" transform="translate(4.275 9)">
        <g id="Vereinigungsmenge_15" data-name="Vereinigungsmenge 15" transform="translate(0 0)" fill="rgba(255,255,255,0.4)">
          <path d="M0,115.17A77.963,77.963,0,0,1,59.275,39.665V16H54.911a4,4,0,0,1-4-4V4a4,4,0,0,1,4-4h46.9a4,4,0,0,1,4,4v8a4,4,0,0,1-4,4H97.451V39.666a77.97,77.97,0,0,1,59.274,75.5c0,42.984-35.084,77.83-78.362,77.83S0,158.154,0,115.17Z" stroke="none"/>
          <path d="M 78.36299896240234 190.0005187988281 C 88.54067993164062 190.0005187988281 98.41215515136719 188.0214691162109 107.7031784057617 184.1183319091797 C 112.1685485839844 182.242431640625 116.4755249023438 179.9205169677734 120.5044708251953 177.2170715332031 C 124.4955520629883 174.5390472412109 128.2485809326172 171.4635162353516 131.6593322753906 168.0758819580078 C 135.0697326660156 164.6886138916016 138.1658172607422 160.9616241455078 140.861572265625 156.9984588623047 C 143.5823974609375 152.9984436035156 145.9191284179688 148.7225952148438 147.806884765625 144.2897186279297 C 151.7339172363281 135.0681915283203 153.72509765625 125.2710113525391 153.72509765625 115.1703033447266 C 153.72509765625 106.6001968383789 152.2787017822266 98.19764709472656 149.4261016845703 90.19599151611328 C 146.6686553955078 82.46128082275391 142.6596221923828 75.26109313964844 137.5103607177734 68.79541015625 C 132.4083099365234 62.38901519775391 126.3312606811523 56.88251495361328 119.4480514526367 52.42885589599609 C 112.4484405517578 47.89988327026367 104.8040466308594 44.58527755737305 96.72723388671875 42.57706832885742 L 94.45110321044922 42.0111198425293 L 94.45110321044922 13.00019931793213 L 101.8143157958984 13.00019931793213 C 102.3659973144531 13.00019931793213 102.814811706543 12.55177783966064 102.814811706543 12.00059413909912 L 102.814811706543 4.000514984130859 C 102.814811706543 3.448830604553223 102.3659973144531 3.000015020370483 101.8143157958984 3.000015020370483 L 54.91081237792969 3.000015020370483 C 54.35962677001953 3.000015020370483 53.91120529174805 3.448830604553223 53.91120529174805 4.000514984130859 L 53.91120529174805 12.00059413909912 C 53.91120529174805 12.55177783966064 54.35962677001953 13.00019931793213 54.91081237792969 13.00019931793213 L 62.2748908996582 13.00019931793213 L 62.2748908996582 42.01043701171875 L 59.9985237121582 42.57622528076172 C 51.92073440551758 44.58398818969727 44.27570724487305 47.89827728271484 37.27581024169922 52.42704010009766 C 30.39246940612793 56.8803825378418 24.31544303894043 62.38675308227539 19.21354866027832 68.79322814941406 C 14.06454849243164 75.25880432128906 10.0557861328125 82.45919799804688 7.298548698425293 90.19435882568359 C 4.44623327255249 98.19625091552734 2.999996185302734 106.5993576049805 2.999996185302734 115.1703033447266 C 2.999996185302734 125.2710113525391 4.991180419921875 135.0681915283203 8.918232917785645 144.2897186279297 C 10.80599594116211 148.7225952148438 13.14273262023926 152.9984436035156 15.86357498168945 156.9984436035156 C 18.55936431884766 160.9616241455078 21.65546989440918 164.6886138916016 25.06589126586914 168.0758819580078 C 28.47665405273438 171.4634857177734 32.22973251342773 174.5390472412109 36.2208366394043 177.2170715332031 C 40.24983978271484 179.9205169677734 44.55686569213867 182.242431640625 49.02228546142578 184.1183013916016 C 58.31346893310547 188.0214691162109 68.18510437011719 190.0005187988281 78.36299896240234 190.0005187988281 M 78.36299896240234 193.0005187988281 C 35.08381271362305 193.0005187988281 -3.803453864748008e-06 158.154296875 -3.803453864748008e-06 115.1703033447266 C -3.803453864748008e-06 78.72390747070312 25.21981239318848 48.12930297851562 59.2748908996582 39.66480255126953 L 59.2748908996582 16.00019836425781 L 54.91081237792969 16.00019836425781 C 52.70131301879883 16.00019836425781 50.91120529174805 14.20919895172119 50.91120529174805 12.00059413909912 L 50.91120529174805 4.000514984130859 C 50.91120529174805 1.791014909744263 52.70131301879883 1.492791398050031e-05 54.91081237792969 1.492791398050031e-05 L 101.8143157958984 1.492791398050031e-05 C 104.023811340332 1.492791398050031e-05 105.814811706543 1.791014909744263 105.814811706543 4.000514984130859 L 105.814811706543 12.00059413909912 C 105.814811706543 14.20919895172119 104.023811340332 16.00019836425781 101.8143157958984 16.00019836425781 L 97.45110321044922 16.00019836425781 L 97.45110321044922 39.66569900512695 C 131.501708984375 48.13198852539062 156.72509765625 78.72659301757812 156.72509765625 115.1703033447266 C 156.72509765625 158.154296875 121.6413116455078 193.0005187988281 78.36299896240234 193.0005187988281 Z" stroke="none" fill="rgba(224,224,224,0.5)"/>
        </g>
        <g id="Schnittmenge_2" data-name="Schnittmenge 2" transform="translate(62.243 13)" fill="none">
          <path d="M0,3V0H32.241V3Z" stroke="none"/>
          <path d="M 32.24069976806641 2.99970006942749 L -1.159667988304136e-07 2.99970006942749 L -1.159667988304136e-07 3.471374654395731e-08 L 32.24069976806641 3.471374654395731e-08 L 32.24069976806641 2.99970006942749 Z" stroke="none" fill="rgba(224,224,224,0.5)"/>
        </g>
      </g>
      <g id="Gruppe_13" data-name="Gruppe 13" transform="translate(69.133)">
        <rect id="Rechteck_128" data-name="Rechteck 128" width="27" height="33" rx="3" fill="rgba(164,111,116,0.4)"/>
        <path id="Pfad_7" data-name="Pfad 7" d="M3,0H24a3,3,0,0,1,3,3V9L0,8.991V3A3,3,0,0,1,3,0Z" fill="url(#linear-gradient)"/>
      </g>
      <path id="Pfad_11" data-name="Pfad 11" d="M12.24.127C18.514-.888,24.48,4.3,24.48,10.97S19.209,21.676,12.24,22.456,0,17.639,0,10.97,5.966,1.142,12.24.127Z" transform="matrix(0.914, -0.407, 0.407, 0.914, 24.653, 74.536)" fill="rgba(255,255,255,0.17)"/>
      <path id="Pfad_12" data-name="Pfad 12" d="M1.7,80.11C23.511,12.818,69.492,21.8,72.825,7.659S32.29-.568,15.784,21.521c-5.76,7.709-12,17.39-14.115,26.72A76.6,76.6,0,0,0,1.7,80.11Z" transform="translate(0 173.147) rotate(-75)" fill="url(#linear-gradient-2)"/>
    </g>
    <path id="Differenzmenge_2" data-name="Differenzmenge 2" d="M64.363,102A64.093,64.093,0,0,1,18.851,83.108,64.538,64.538,0,0,1,11.99,0H116.735a64.532,64.532,0,0,1-6.862,83.108A64.092,64.092,0,0,1,64.363,102Z" transform="translate(1468 686)" fill="rgba(255,86,86,0.7)"/>
  </g>
</svg>
