<svg xmlns="http://www.w3.org/2000/svg" viewBox="0 0 900 100">
   <g transform="translate(0 -0.161)">
      <rect transform="translate(0 0.161)" />
      <path
         d="M0,474l15,4.811c15,4.749,45,14.371,75,14.684s60-8.685,90-11.185,60,1.5,90,5.936c30,4.5,60,9.5,90,8.123,30-1.312,60-9.06,90-9.373s60,6.811,90,11.56c30,4.811,60,7.311,90,5.749s60-7.186,90-12.684c30-5.561,60-10.935,90-10.935s60,5.374,75,8.123l15,2.687v61.859H0Z"
         transform="translate(0 -453.194)" fill="#388a8f" />
      <path
         d="M0,508.894l15,.362c15,.362,45,1.086,75,3.836,30,2.823,60,7.6,90,11.509,30,3.836,60,6.732,90,3.474s60-12.667,90-17.879c30-5.139,60-6.153,90,.29,30,6.37,60,20.122,90,20.629,30,.434,60-12.305,90-14.26s60,7.021,90,11.8a367.707,367.707,0,0,0,90,3.04c30-2.533,60-8.324,75-11.219l15-2.9v57.183H0Z"
         transform="translate(0 -474.601)" fill="#55acac" />
      <path
         d="M0,554.6l15-2.5c15-2.574,45-7.571,75-11.281a798.665,798.665,0,0,1,90-6.133c30-.3,60,1.514,90,2.12s60,.151,90,1.893,60,5.83,90,10.6,60,10.372,90,13.4,60,3.483,90,.227,60-10.372,90-14.537a447.913,447.913,0,0,1,90-3.483c30,1.893,60,6.89,75,9.464l15,2.5v28.013H0Z"
         transform="translate(0 -484.724)" fill="#95d1cc" />
      <path
         d="M0,581.419l15-3.786c15-3.786,45-11.357,75-14.991,30-3.71,60-3.407,90-3.331,30,.151,60,.151,90,3.028,30,2.953,60,8.707,90,7.95s60-8.025,90-10.978c30-2.877,60-1.363,90,1.893,30,3.331,60,8.328,90,7.723s60-6.965,90-9.085,60-.151,90,1.514,60,2.877,75,3.558l15,.606V590.5H0Z"
         transform="translate(0 -490.343)" fill="#f6f2d4" />
   </g>
</svg>