<?xml version="1.0" encoding="UTF-8"?><svg id="Layer_1" xmlns="http://www.w3.org/2000/svg" xmlns:xlink="http://www.w3.org/1999/xlink" viewBox="0 0 156.73 202"><defs><linearGradient id="linear-gradient" x1="-407.53" y1="557.5" x2="-405.53" y2="555.53" gradientTransform="translate(11074.28 5020) scale(27 -9)" gradientUnits="userSpaceOnUse"><stop offset="0" stop-color="#a46f74"/><stop offset="1" stop-color="#52383a"/></linearGradient><linearGradient id="linear-gradient-2" x1="-426.01" y1="595.83" x2="-426.9" y2="595.06" gradientTransform="translate(54155.71 -17587.86) rotate(-75) scale(73 -80.11)" gradientUnits="userSpaceOnUse"><stop offset="0" stop-color="#fff" stop-opacity="0"/><stop offset="1" stop-color="#fff" stop-opacity=".17"/></linearGradient></defs><g id="Gruppe_15"><g id="Gruppe_6"><g id="Vereinigungsmenge_15"><path d="M0,124.17C.08,88.38,24.53,57.24,59.28,48.67V25h-4.36c-2.21,0-4-1.79-4-4V13c0-2.21,1.79-4,4-4h46.9c2.21,0,4,1.79,4,4v8c0,2.21-1.79,4-4,4h-4.36v23.67c34.74,8.58,59.18,39.71,59.27,75.5,0,42.98-35.08,77.83-78.36,77.83S0,167.15,0,124.17Z"/><path d="M78.36,199c10.18,0,20.05-1.98,29.34-5.88,4.47-1.88,8.77-4.2,12.8-6.9,3.99-2.68,7.74-5.75,11.15-9.14,3.41-3.39,6.51-7.11,9.2-11.08,2.72-4,5.06-8.28,6.95-12.71,3.93-9.22,5.92-19.02,5.92-29.12,0-8.57-1.45-16.97-4.3-24.97-2.76-7.73-6.77-14.93-11.92-21.4-5.1-6.41-11.18-11.91-18.06-16.37-7-4.53-14.64-7.84-22.72-9.85l-2.28-.57V22h7.36c.55,0,1-.45,1-1V13c0-.55-.45-1-1-1H54.91c-.55,0-1,.45-1,1v8c0,.55,.45,1,1,1h7.36v29.01l-2.28,.57c-8.08,2.01-15.72,5.32-22.72,9.85-6.88,4.45-12.96,9.96-18.06,16.37-5.15,6.47-9.16,13.67-11.91,21.4-2.85,8-4.3,16.4-4.3,24.98,0,10.1,1.99,19.9,5.92,29.12,1.89,4.43,4.22,8.71,6.95,12.71,2.7,3.96,5.79,7.69,9.2,11.08,3.41,3.39,7.16,6.46,11.15,9.14,4.03,2.7,8.34,5.03,12.8,6.9,9.29,3.9,19.16,5.88,29.34,5.88m0,3C35.08,202,0,167.15,0,124.17,0,87.72,25.22,57.13,59.27,48.66V25h-4.36c-2.21,0-4-1.79-4-4V13c0-2.21,1.79-4,4-4h46.9c2.21,0,4,1.79,4,4v8c0,2.21-1.79,4-4,4h-4.36v23.67c34.05,8.47,59.27,39.06,59.27,75.5,0,42.98-35.08,77.83-78.36,77.83Z"/></g><g id="Schnittmenge_2"><path d="M62.24,25v-3h32.24v3H62.24Z" fill="none"/><path d="M94.48,25H62.24v-3h32.24v3Z" fill="none"/></g></g><g id="Gruppe_13"><rect id="Rechteck_128" x="64.86" width="27" height="33" rx="3" ry="3"/><path id="Pfad_7" d="M67.86,0h21c1.66,0,3,1.34,3,3v6h-27V3c0-1.66,1.34-3,3-3Z" fill="url(#linear-gradient)"/></g><path id="Pfad_11" d="M31.62,69.67c5.32-3.48,12.89-1.17,15.6,4.93s-.46,11.93-6.51,15.48-13.15,.58-15.86-5.52,1.45-11.41,6.77-14.89Z"/><path id="Pfad_12" d="M73.55,192.24C14.19,153.75,34.77,111.67,21.97,104.79s-18.44,37.02-1.37,58.69c5.96,7.56,13.69,16.09,22.16,20.55,9.57,4.87,20.06,7.67,30.79,8.22Z" fill="url(#linear-gradient-2)"/></g><path id="Differenzmenge_2" d="M78.36,189c-17.08,.02-33.47-6.78-45.51-18.89-22.28-22.31-25.18-57.45-6.86-83.11h104.75c18.32,25.66,15.42,60.8-6.86,83.11-12.05,12.11-28.43,18.91-45.51,18.89Z"/></svg>