<?xml version="1.0" encoding="utf-8"?>
<!-- Generator: Adobe Illustrator 26.4.1, SVG Export Plug-In . SVG Version: 6.00 Build 0)  -->
<svg version="1.1" id="visual" shape-rendering="crispedges"
	 xmlns="http://www.w3.org/2000/svg" xmlns:xlink="http://www.w3.org/1999/xlink" x="0px" y="0px" viewBox="0 0 900 600.5"
	 style="enable-background:new 0 0 900 600.5;" xml:space="preserve">
<style type="text/css">
	.st0{fill:#697BFA;}
	.st1{fill:#6B67E9;}
	.st2{fill:#6D53D7;}
	.st3{fill:#6E3DC4;}
	.st4{fill:#6F23B0;}
</style>
<path class="st0" d="M0,136h56v-18h57v13h56v18h56v-36h56v23h57v18h56v-18h56v-9h56v9h57v13h56v14h56v-32h56h57v23h56v-18h56v18V0H0
	V136z"/>
<path class="st1" d="M0,171.2h56v4h57v9h56v14h56v-14h56v23h57v-9h56v-9h56v4h56l0,0h57v27h56v-27h56l0,0h56v-22h57v40h56v-31h56v40
	v-69v-18h-56v18h-56v-23h-57l0,0h-56v32h-56v-14h-56v-13h-57v-9h-56v9h-56v18h-56v-18h-57v-23h-56v36h-56v-18h-56v-13H56v18H0V171.2
	z"/>
<path class="st2" d="M0,328.2h56v-72h57v59h56v36h56v-32h56v-4h57v-23h56v72h56v-49h56v-23h57v14h56v54h56v-68h56v45h57v9h56v5h56
	v49v-182v-40h-56v31h-56v-40h-57v22h-56l0,0h-56v27h-56v-27h-57l0,0h-56v-4h-56v9h-56v9h-57v-23h-56v14h-56v-14h-56v-9H56v-4H0
	V328.2z"/>
<path class="st3" d="M0,414.2h56l0,0h57v45h56v-18h56v36h56v-5h57v-22h56v9h56l0,0h56v-41h57v14h56v18h56l0,0h56v4h57v-31h56v22h56
	v32v-79v-49h-56v-5h-56v-9h-57v-45h-56v68h-56v-54h-56v-14h-57v23h-56v49h-56v-72h-56v23h-57v4h-56v32h-56v-36h-56v-59H56v72H0
	V414.2z"/>
<path class="st4" d="M0,600.5h900V475.2v-32h-56v-22h-56v31h-57v-4h-56h-56v-18h-56v-14h-57v41h-56h-56v-9h-56v22h-57v5h-56v-36h-56
	v18h-56v-45H56H0V600.5z"/>
</svg>
