<svg xmlns="http://www.w3.org/2000/svg" viewBox="0 0 900 155">
   <g transform="translate(0 0.393)">
      <rect transform="translate(0 -0.393)" />
      <path
         d="M0,503l15-.7c15-.6,45-2,75-10.8s60-25.2,90-20.5,60,30.3,90,34.3,60-13.6,90-18.3,60,3.7,90,8.3c30,4.7,60,5.7,90-1.6,30-7.4,60-23,90-25.4,30-2.3,60,8.7,90,20.2s60,23.5,90,21.8c30-1.6,60-17,75-24.6l15-7.7V601H0Z"
         transform="translate(0 -446.393)" fill="#60f" />
      <path
         d="M0,474l15,7.7c15,7.6,45,23,75,23.5s60-13.9,90-17.9,60,2.4,90,9.5c30,7.2,60,15.2,90,13,30-2.1,60-14.5,90-15s60,10.9,90,18.5c30,7.7,60,11.7,90,9.2s60-11.5,90-20.3c30-8.9,60-17.5,90-17.5s60,8.6,75,13l15,4.3v99H0Z"
         transform="translate(0 -446.393)" fill="#0082ff" />
      <path
         d="M0,510l15,.5c15,.5,45,1.5,75,5.3,30,3.9,60,10.5,90,15.9,30,5.3,60,9.3,90,4.8s60-17.5,90-24.7c30-7.1,60-8.5,90,.4,30,8.8,60,27.8,90,28.5,30,.6,60-17,90-19.7s60,9.7,90,16.3c30,6.7,60,7.7,90,4.2S870,530,885,526l15-4v79H0Z"
         transform="translate(0 -446.393)" fill="#00b8ff" />
      <path
         d="M0,561l15-3.3c15-3.4,45-10,75-14.9a608.138,608.138,0,0,1,90-8.1c30-.4,60,2,90,2.8s60,.2,90,2.5,60,7.7,90,14,60,13.7,90,17.7,60,4.6,90,.3,60-13.7,90-19.2a340.318,340.318,0,0,1,90-4.6c30,2.5,60,9.1,75,12.5l15,3.3v37H0Z"
         transform="translate(0 -446.393)" fill="#00e0fb" />
      <path
         d="M0,589l15-5c15-5,45-15,75-19.8,30-4.9,60-4.5,90-4.4,30,.2,60,.2,90,4,30,3.9,60,11.5,90,10.5s60-10.6,90-14.5c30-3.8,60-1.8,90,2.5,30,4.4,60,11,90,10.2s60-9.2,90-12,60-.2,90,2,60,3.8,75,4.7l15,.8v33H0Z"
         transform="translate(0 -446.393)" fill="#00ffc8" />
   </g>
</svg>