<svg xmlns="http://www.w3.org/2000/svg" xmlns:xlink="http://www.w3.org/1999/xlink" width="139" height="180" viewBox="0 0 139 180">
  <defs>
    <linearGradient id="linear-gradient" x1="0.5" x2="0.929" y2="0.877" gradientUnits="objectBoundingBox">
      <stop offset="0" stop-color="#fff" stop-opacity="0.4"/>
      <stop offset="1" stop-color="#bfbfbf" stop-opacity="0.502"/>
    </linearGradient>
    <linearGradient id="linear-gradient-2" x1="0.813" y1="-0.586" x2="0.958" y2="6.481" gradientUnits="objectBoundingBox">
      <stop offset="0" stop-color="#a46f74"/>
      <stop offset="1" stop-color="#52383a" stop-opacity="0.259"/>
    </linearGradient>
    <linearGradient id="linear-gradient-3" x1="0.622" y1="0.416" x2="-0.29" y2="1.117" gradientUnits="objectBoundingBox">
      <stop offset="0" stop-color="#fff" stop-opacity="0.302"/>
      <stop offset="1" stop-color="gray" stop-opacity="0"/>
    </linearGradient>
  </defs>
  <g id="Gruppe_22" data-name="Gruppe 22" transform="translate(-1613 -621)">
    <g id="Gruppe_11" data-name="Gruppe 11">
      <g id="Gruppe_3" data-name="Gruppe 3">
        <g id="Vereinigungsmenge_10" data-name="Vereinigungsmenge 10" transform="translate(1613 630)" fill="url(#linear-gradient)">
          <path d="M74.714,171H61.122C6.651,171.239,7,140.671,7,135.148V16H4a4,4,0,0,1-4-4V4A4,4,0,0,1,4,0H135a4,4,0,0,1,4,4v8a4,4,0,0,1-4,4h-3V135.148c0,5.5.242,35.849-56.61,35.851Z" stroke="none"/>
          <path d="M 60.48218154907227 167.9996337890625 L 60.48199844360352 167.9996337890625 C 60.68875885009766 167.9996032714844 60.89987564086914 167.9991607666016 61.1082763671875 167.9982299804688 L 61.12170791625977 167.9981994628906 L 74.72689819335938 167.9982299804688 C 74.94551849365234 167.9991302490234 75.15701293945312 167.9996032714844 75.37363433837891 167.9996032714844 L 75.38967895507812 167.9996032714844 C 88.05875396728516 167.9990844726562 98.72444152832031 166.4479370117188 107.0904693603516 163.3892517089844 C 113.7446823120117 160.9564208984375 118.980110168457 157.5564422607422 122.6513748168945 153.2837524414062 C 129.0022277832031 145.8925170898438 129.0007781982422 137.8587799072266 129.0003051757812 135.2188262939453 L 129.0003051757812 13.00020503997803 L 134.9999847412109 13.00020503997803 C 135.5511779785156 13.00020503997803 135.9996185302734 12.55137157440186 135.9996185302734 11.99970531463623 L 135.9996185302734 3.99960994720459 C 135.9996185302734 3.448419570922852 135.5511779785156 3.000014781951904 134.9999847412109 3.000014781951904 L 3.999611139297485 3.000014781951904 C 3.448420763015747 3.000014781951904 2.99999213218689 3.448419570922852 2.99999213218689 3.99960994720459 L 2.99999213218689 11.99970531463623 C 2.99999213218689 12.55137157440186 3.448420763015747 13.00020503997803 3.999611139297485 13.00020503997803 L 10.00020599365234 13.00020503997803 L 10.00018215179443 135.2556304931641 C 9.99915885925293 137.9159851074219 9.996015548706055 146.0117797851562 16.00646781921387 153.3990173339844 C 19.45844459533691 157.6417236328125 24.38051605224609 161.0158538818359 30.63601684570312 163.4276885986328 C 38.50527954101562 166.4617004394531 48.54696655273438 167.9999389648438 60.48218154907227 167.9996337890625 M 60.48226547241211 170.9996185302734 C 6.650096416473389 171.0009918212891 7.000206470489502 140.6493225097656 7.000206470489502 135.1484985351562 L 7.000206470489502 16.00020599365234 L 3.999611139297485 16.00020599365234 C 1.790992140769958 16.00020599365234 -7.888067557360046e-06 14.20920562744141 -7.888067557360046e-06 11.99970531463623 L -7.888067557360046e-06 3.99960994720459 C -7.888067557360046e-06 1.791014671325684 1.790992140769958 1.472400526836282e-05 3.999611139297485 1.472400526836282e-05 L 134.9999847412109 1.472400526836282e-05 C 137.2095184326172 1.472400526836282e-05 138.9996185302734 1.791014671325684 138.9996185302734 3.99960994720459 L 138.9996185302734 11.99970531463623 C 138.9996185302734 14.20920562744141 137.2095184326172 16.00020599365234 134.9999847412109 16.00020599365234 L 132.0003051757812 16.00020599365234 L 132.0003051757812 135.1484985351562 C 132.0003051757812 140.6490173339844 132.2427520751953 170.9972534179688 75.38980102539062 170.9996032714844 C 75.16352081298828 170.9999084472656 74.94266510009766 170.9991607666016 74.71439361572266 170.9981994628906 L 61.12170791625977 170.9981994628906 C 60.90893173217773 170.9991455078125 60.6933708190918 170.9996185302734 60.48226547241211 170.9996185302734 Z" stroke="none" fill="rgba(224,224,224,0.5)"/>
        </g>
        <g id="Schnittmenge_1" data-name="Schnittmenge 1" transform="translate(1616 630)" fill="none">
          <path d="M7,16V13H126v3Z" stroke="none"/>
          <path d="M 126.0000076293945 16.00019264221191 L 7.000208377838135 16.00019264221191 L 7.000208377838135 12.99959182739258 L 126.0000076293945 12.99959182739258 L 126.0000076293945 16.00019264221191 Z" stroke="none" fill="rgba(224,224,224,0.5)"/>
        </g>
      </g>
      <g id="Gruppe_4" data-name="Gruppe 4">
        <g id="Gruppe_10" data-name="Gruppe 10">
          <rect id="Rechteck_128" data-name="Rechteck 128" width="105" height="33" rx="3" transform="translate(1630 621)" fill="rgba(164,111,116,0.4)"/>
          <path id="Pfad_5" data-name="Pfad 5" d="M3,0h99a3,3,0,0,1,3,3V9.019L0,8.987S0,4.274,0,3A3,3,0,0,1,3,0Z" transform="translate(1630 621)" fill="url(#linear-gradient-2)"/>
        </g>
      </g>
      <path id="Pfad_6" data-name="Pfad 6" d="M62.567,71.2s4.588-43.336-11.624-60.058S0,1.481,0,1.481,23.391,6.4,40.481,22.282C47.368,28.682,56.959,42.241,62.567,71.2Z" transform="translate(1738.448 730.577) rotate(90)" fill="rgba(255,255,255,0.17)"/>
      <path id="Pfad_13" data-name="Pfad 13" d="M68.132,24.612c1.4-6.2-12.111-5.589-35.888-3.41s-47.7,4.728-46.834,10.69S66.734,30.813,68.132,24.612Z" transform="translate(1662.692 687.147) rotate(96)" fill="url(#linear-gradient-3)"/>
    </g>
    <path id="Vereinigungsmenge_8" data-name="Vereinigungsmenge 8" d="M15.01,49.439H116v84.446c0,4.873.2,31.843-46.287,31.631H58.731C14.718,165.728,15,138.758,15,133.885Z" transform="translate(1617 623.483)" fill="rgba(255,86,86,0.7)"/>
  </g>
</svg>
