<svg xmlns="http://www.w3.org/2000/svg" width="87.097" height="86.595" viewBox="0 0 87.097 86.595">
  <g id="vscode" transform="translate(0.156 -0.66)">
    <path id="Pfad_16" data-name="Pfad 16" d="M83.86,9.834,65.925,1.2A5.422,5.422,0,0,0,59.739,2.25L1.027,55.782a3.627,3.627,0,0,0,0,5.364l4.8,4.36a3.627,3.627,0,0,0,4.632.206l70.7-53.637a3.6,3.6,0,0,1,5.779,2.87v-.208a5.44,5.44,0,0,0-3.08-4.9Z" transform="translate(0 -0.002)" fill="#0065a9"/>
    <g id="Gruppe_24" data-name="Gruppe 24" transform="translate(-0.157 21.467)">
      <path id="Pfad_17" data-name="Pfad 17" d="M83.86,118.471l-17.935,8.635a5.423,5.423,0,0,1-6.186-1.051L1.027,72.523a3.627,3.627,0,0,1,0-5.364l4.8-4.36a3.627,3.627,0,0,1,4.632-.206l70.7,53.637a3.6,3.6,0,0,0,5.779-2.87v.208a5.44,5.44,0,0,1-3.08,4.9Z" transform="translate(0.157 -61.856)" fill="#007acc"/>
    </g>
    <g id="Gruppe_25" data-name="Gruppe 25" transform="translate(59.739 0.66)">
      <path id="Pfad_18" data-name="Pfad 18" d="M182.187,86.718A5.425,5.425,0,0,1,176,85.666a3.187,3.187,0,0,0,5.44-2.254V4.5A3.187,3.187,0,0,0,176,2.249,5.425,5.425,0,0,1,182.187,1.2L200.119,9.82a5.44,5.44,0,0,1,3.083,4.9V73.192a5.44,5.44,0,0,1-3.082,4.9l-17.932,8.623Z" transform="translate(-176 -0.66)" fill="#1f9cf0"/>
    </g>
    <path id="Pfad_19" data-name="Pfad 19" d="M61.568,86.886a5.418,5.418,0,0,0,4.318-.166L83.807,78.1a5.44,5.44,0,0,0,3.081-4.9V14.723a5.441,5.441,0,0,0-3.081-4.9L65.886,1.2A5.419,5.419,0,0,0,59.7,2.25L25.4,33.55,10.452,22.206a3.623,3.623,0,0,0-4.629.206L1.03,26.771a3.628,3.628,0,0,0,0,5.364L13.986,43.958,1.026,55.782a3.628,3.628,0,0,0,0,5.364l4.793,4.36a3.623,3.623,0,0,0,4.629.206L25.4,54.368,59.7,85.667a5.413,5.413,0,0,0,1.865,1.219ZM65.14,24.2,39.108,43.958,65.14,63.718V24.2Z" transform="translate(0 -0.001)" fill="#fff" fill-rule="evenodd" opacity="0.25"/>
  </g>
</svg>