<svg width="61" height="73" viewBox="0 0 61 73" fill="none" xmlns="http://www.w3.org/2000/svg">
    <path d="M50.9991 38.5779C50.9642 32.5943 53.6608 28.0846 59.1063 24.7594C56.0607 20.3725 51.4529 17.9598 45.3791 17.4948C39.6282 17.0385 33.3362 20.8639 31.0323 20.8639C28.5976 20.8639 23.0299 17.6527 18.6491 17.6527C9.60816 17.7931 0 24.8998 0 39.3588C0 43.6316 0.776681 48.0448 2.33004 52.5895C4.40701 58.5732 11.8946 73.2341 19.705 72.9972C23.7891 72.9006 26.6777 70.0843 31.9923 70.0843C37.1498 70.0843 39.8202 72.9972 44.3755 72.9972C52.2558 72.8831 59.0278 59.5559 61 53.5546C50.4319 48.5449 50.9991 38.885 50.9991 38.5779ZM41.8273 11.8182C46.2518 6.5364 45.8504 1.72842 45.7195 0C41.8099 0.228116 37.2894 2.67598 34.715 5.68536C31.8788 8.91408 30.212 12.9061 30.5698 17.407C34.7936 17.7316 38.6508 15.547 41.8273 11.8182Z" fill="black"/>
</svg>
