<svg width="62" height="72" viewBox="0 0 62 72" fill="none" xmlns="http://www.w3.org/2000/svg">
    <path d="M59.2 17.281L60.891 13.137L56.099 8.17503C53.505 5.58103 47.98 7.10403 47.98 7.10403L41.722 0.00402832H19.649L13.362 7.13603C13.362 7.13603 7.83701 5.64203 5.24301 8.17903L0.450989 13.112L2.142 17.256L0 23.4L7.048 50.266C8.514 56.017 9.50101 58.244 13.648 61.176L26.531 69.915C27.771 70.676 29.294 72.001 30.675 72.001C32.056 72.001 33.575 70.676 34.819 69.915L47.702 61.176C51.846 58.244 52.833 56.017 54.302 50.266L61.35 23.4L59.2 17.281Z" fill="url(#paint0_linear_148_716)"/>
    <path d="M46.2338 11.671C46.2338 11.671 54.3248 21.453 54.3248 23.511C54.3248 25.625 53.3098 26.161 52.2948 27.26L46.2338 33.744C45.6698 34.308 44.4578 35.266 45.1628 36.93C45.8628 38.621 46.8539 40.708 45.7269 42.85C44.5989 45.021 42.6268 46.458 41.3568 46.233C39.4701 45.6206 37.6699 44.7679 36.0008 43.696C34.9298 42.996 31.4899 40.144 31.4899 39.044C31.4899 37.944 35.0418 35.944 35.7188 35.544C36.3668 35.093 39.3838 33.344 39.4398 32.669C39.4958 31.994 39.4958 31.823 38.5938 30.132C37.6918 28.441 36.1129 26.185 36.3389 24.719C36.6209 23.253 39.1578 22.464 41.0468 21.759L46.8828 19.559C47.3338 19.333 47.2208 19.136 45.8678 18.995C44.5148 18.882 40.7088 18.375 38.9888 18.854C37.2688 19.333 34.3888 20.066 34.1118 20.461C33.8858 20.861 33.6608 20.861 33.9118 22.209L35.5468 31.089C35.6598 32.217 35.8849 32.978 34.7009 33.26C33.3857 33.6011 32.0494 33.8554 30.7009 34.021C29.3523 33.8554 28.016 33.6011 26.7009 33.26C25.4889 32.978 25.7138 32.217 25.8548 31.089C25.9678 29.961 27.2079 23.534 27.4619 22.209C27.7439 20.856 27.4898 20.856 27.2618 20.461C26.9798 20.061 24.0758 19.333 22.3618 18.854C20.6708 18.375 16.8368 18.882 15.4828 19.023C14.1298 19.136 14.0168 19.305 14.4678 19.587L20.2988 21.761C22.1598 22.461 24.7529 23.255 25.0069 24.721C25.2889 26.215 23.6818 28.442 22.7518 30.134C21.8218 31.826 21.8519 31.995 21.9059 32.671C21.9599 33.347 25.0058 35.095 25.6268 35.546C26.3038 35.969 29.8559 37.946 29.8559 39.046C29.8559 40.146 26.4168 42.993 25.3448 43.698C23.6757 44.7699 21.8756 45.6226 19.9888 46.235C18.7198 46.461 16.7469 45.023 15.5889 42.852C14.4609 40.709 15.4758 38.623 16.1528 36.932C16.8528 35.24 15.6738 34.338 15.0818 33.746L9.02084 27.261C8.06284 26.218 7.04785 25.654 7.04785 23.568C7.04785 21.482 15.1388 11.728 15.1388 11.728L22.8389 12.968C24.4649 12.6748 26.0532 12.2019 27.5748 11.558C28.5809 11.2329 29.6211 11.0249 30.6749 10.938C31.7329 10.9923 32.7773 11.2012 33.7748 11.558C35.3024 12.185 36.889 12.6574 38.5108 12.968C39.4408 12.968 46.2638 11.643 46.2638 11.643L46.2338 11.671ZM40.1729 49.109C40.6799 49.391 40.3729 50.009 39.8909 50.349L32.7298 55.931C32.1658 56.495 31.2638 57.341 30.6718 57.341C30.0798 57.341 29.2058 56.495 28.6138 55.931C26.2405 54.041 23.8442 52.1803 21.4249 50.349C20.9739 50.011 20.6639 49.419 21.1429 49.109L25.3718 46.854C27.0527 45.9648 28.8314 45.2741 30.6718 44.796C32.4999 45.2848 34.2681 45.975 35.9438 46.854L40.1729 49.109Z" fill="white"/>
    <path d="M48.0381 7.132L41.7231 0H19.6501L13.3631 7.132C13.3631 7.132 7.83814 5.638 5.24414 8.175C5.24414 8.175 12.5741 7.527 15.1111 11.642L22.8922 12.942C24.5181 12.6488 26.1065 12.1759 27.6281 11.532C28.6342 11.2069 29.6744 10.9989 30.7281 10.912C31.7862 10.9663 32.8306 11.1752 33.8282 11.532C35.3558 12.159 36.9423 12.6314 38.5641 12.942C39.4941 12.942 46.3171 11.617 46.3171 11.617C48.8541 7.501 56.1841 8.149 56.1841 8.149C53.5901 5.555 48.0651 7.078 48.0651 7.078" fill="url(#paint1_linear_148_716)"/>
    <defs>
        <linearGradient id="paint0_linear_148_716" x1="0" y1="36.5065" x2="61.35" y2="36.5065" gradientUnits="userSpaceOnUse">
            <stop stop-color="#00A7FF"/>
            <stop offset="0.4" stop-color="#0162BF"/>
            <stop offset="0.5" stop-color="#0058B8"/>
            <stop offset="0.6" stop-color="#0038B0"/>
            <stop offset="1" stop-color="#001450"/>
        </linearGradient>
        <linearGradient id="paint1_linear_148_716" x1="5.24414" y1="6.56159" x2="53.9937" y2="6.56159" gradientUnits="userSpaceOnUse">
            <stop stop-color="#0082FF"/>
            <stop offset="1" stop-color="#001B6D"/>
        </linearGradient>
    </defs>
</svg>
