<svg width="65" height="72" viewBox="0 0 65 72" fill="none" xmlns="http://www.w3.org/2000/svg">
    <path d="M64.0584 21.1681C64.083 20.0511 63.813 18.9474 63.2754 17.9681C62.7194 17.0209 61.9188 16.241 60.9574 15.7101C52.4294 10.7914 43.8994 5.87775 35.3674 0.969085C34.3462 0.324786 33.1609 -0.0115783 31.9535 0.000304284C30.7461 0.0121868 29.5677 0.371799 28.5594 1.03607C25.1594 3.03607 8.16937 12.7751 3.10537 15.7081C2.12874 16.2352 1.32013 17.0265 0.771938 17.9915C0.223751 18.9565 -0.0418946 20.0563 0.00536696 21.1651V50.8321C-0.0174789 51.9246 0.24042 53.0047 0.754375 53.9691C1.30949 54.9446 2.123 55.7481 3.10537 56.2911C8.17037 59.2241 25.1674 68.9611 28.5614 70.9631C29.57 71.6276 30.7487 71.9874 31.9565 71.9993C33.1643 72.0112 34.3499 71.6747 35.3714 71.0301C43.8987 66.1074 52.43 61.1934 60.9654 56.2881C61.9481 55.7462 62.7623 54.9438 63.3184 53.9691C63.8322 53.0043 64.09 51.9239 64.0674 50.8311V21.1681" fill="#A9B9CB"/>
    <path d="M32.1295 35.9031L0.749512 53.9711C1.30546 54.9462 2.11967 55.749 3.10251 56.2911C8.16751 59.2241 25.1645 68.9611 28.5585 70.9631C29.5671 71.6276 30.7459 71.9874 31.9536 71.9993C33.1614 72.0112 34.347 71.6747 35.3685 71.0301C43.8972 66.1074 52.4282 61.1931 60.9615 56.2871C61.9442 55.7452 62.7584 54.9428 63.3145 53.9681L32.1295 35.9031Z" fill="#7F8B99"/>
    <path d="M22.8335 41.255C23.7627 42.8816 25.1067 44.2326 26.7284 45.1703C28.3501 46.108 30.1915 46.5987 32.0648 46.5925C33.938 46.5863 35.7761 46.0834 37.3916 45.135C39.0071 44.1866 40.3421 42.8267 41.2605 41.194L32.1275 35.9041L22.8335 41.255Z" fill="#7F8B99"/>
    <path d="M64.0594 21.168C64.0841 20.0511 63.814 18.9474 63.2764 17.968L32.1294 35.903L63.3114 53.968C63.8252 53.0032 64.0831 51.9228 64.0604 50.83V21.167" fill="#7F8B99"/>
    <path d="M41.2623 41.194C40.1169 43.2299 38.3306 44.8301 36.1814 45.7455C34.0323 46.661 31.6407 46.8404 29.3791 46.2558C27.1174 45.6711 25.1124 44.3553 23.6761 42.5131C22.2398 40.6708 21.4527 38.4054 21.4374 36.0694C21.422 33.7335 22.1793 31.4579 23.5913 29.5969C25.0033 27.736 26.9908 26.3939 29.2446 25.7797C31.4984 25.1654 33.8921 25.3133 36.0531 26.2005C38.2141 27.0877 40.0212 28.6643 41.1933 30.685L50.4523 25.353C48.1065 21.2955 44.4865 18.1262 40.1545 16.3373C35.8225 14.5485 31.0211 14.2403 26.4959 15.4605C21.9708 16.6807 17.9752 19.3611 15.1299 23.0854C12.2845 26.8096 10.7487 31.3692 10.7608 36.056C10.773 40.7428 12.3325 45.2944 15.1971 49.0038C18.0617 52.7132 22.0711 55.3729 26.6026 56.5696C31.134 57.7663 35.9338 57.4332 40.2564 55.6219C44.5791 53.8106 48.1826 50.6226 50.5073 46.553L41.2623 41.196" fill="white"/>
</svg>
