<svg width="65" height="72" viewBox="0 0 65 72" fill="none" xmlns="http://www.w3.org/2000/svg">
    <path d="M64.0631 21.1681C64.0878 20.0511 63.8177 18.9474 63.2801 17.9681C62.7242 17.0209 61.9235 16.241 60.9621 15.7101C52.4341 10.7914 43.9041 5.87775 35.3721 0.969085C34.3509 0.324786 33.1656 -0.0115783 31.9582 0.000304284C30.7508 0.0121868 29.5724 0.371799 28.5641 1.03607C25.1641 3.03607 8.17409 12.7751 3.11009 15.7081C2.13317 16.2343 1.32394 17.0246 0.774882 17.9889C0.225822 18.9532 -0.0409332 20.0524 0.00509151 21.1611V50.8281C-0.0177544 51.9206 0.240137 53.0007 0.754092 53.9651C1.3092 54.9406 2.12272 55.7441 3.10509 56.2871C8.17009 59.2201 25.1671 68.9571 28.5611 70.9591C29.5697 71.6236 30.7484 71.9834 31.9562 71.9953C33.164 72.0072 34.3496 71.6707 35.3711 71.0261C43.8984 66.1034 52.4298 61.1891 60.9651 56.2831C61.9478 55.7412 62.762 54.9388 63.3181 53.9641C63.8319 52.9993 64.0898 51.9189 64.0671 50.8261V21.1671" fill="#5C8DBC"/>
    <path d="M32.1344 35.9031L0.754395 53.9711C1.31034 54.9462 2.12456 55.749 3.1074 56.2911C8.1724 59.2241 25.1694 68.9611 28.5634 70.9631C29.572 71.6276 30.7507 71.9874 31.9585 71.9993C33.1663 72.0112 34.3519 71.6747 35.3734 71.0301C43.9021 66.1074 52.4331 61.1931 60.9664 56.2871C61.9491 55.7452 62.7633 54.9428 63.3194 53.9681L32.1344 35.9031Z" fill="#1A4674"/>
    <path d="M22.8384 41.255C23.7676 42.8816 25.1116 44.2326 26.7333 45.1703C28.355 46.108 30.1964 46.5987 32.0697 46.5925C33.9429 46.5863 35.781 46.0834 37.3965 45.135C39.0119 44.1866 40.347 42.8267 41.2654 41.194L32.1324 35.9041L22.8384 41.255Z" fill="#1A4674"/>
    <path d="M64.0643 21.1682C64.0889 20.0513 63.8189 18.9476 63.2813 17.9683L32.1343 35.9033L63.3183 53.9683C63.8321 53.0035 64.0899 51.9231 64.0673 50.8303V21.1673" fill="#1B598E"/>
    <path d="M62.3494 37.1942H59.9124V39.6312H57.4754V37.1942H55.0384V34.7612H57.4754V32.3242H59.9124V34.7612H62.3494V37.1982M53.4574 37.1982H51.0204V39.6352H48.5874V37.1982H46.1504V34.7612H48.5874V32.3242H51.0244V34.7612H53.4634V37.1982" fill="white"/>
    <path d="M41.2672 41.1942C40.1217 43.2301 38.3355 44.8303 36.1863 45.7458C34.0371 46.6612 31.6456 46.8406 29.384 46.256C27.1223 45.6714 25.1173 44.3556 23.681 42.5133C22.2446 40.671 21.4576 38.4056 21.4422 36.0697C21.4269 33.7337 22.1842 31.4582 23.5962 29.5972C25.0082 27.7362 26.9957 26.3942 29.2495 25.7799C31.5033 25.1656 33.897 25.3136 36.058 26.2007C38.219 27.0879 40.0261 28.6645 41.1982 30.6852L50.4572 25.3532C48.1114 21.2957 44.4914 18.1264 40.1594 16.3376C35.8274 14.5487 31.026 14.2405 26.5008 15.4607C21.9757 16.681 17.9801 19.3614 15.1348 23.0856C12.2894 26.8099 10.7535 31.3695 10.7657 36.0563C10.7779 40.743 12.3374 45.2946 15.202 49.004C18.0666 52.7135 22.076 55.3731 26.6075 56.5698C31.1389 57.7666 35.9387 57.4334 40.2613 55.6222C44.584 53.8109 48.1875 50.6228 50.5122 46.5532L41.2672 41.1962" fill="white"/>
</svg>
