<svg width="65" height="72" viewBox="0 0 65 72" fill="none" xmlns="http://www.w3.org/2000/svg">
    <path d="M64.024 21.148C64.0524 20.0299 63.7799 18.9247 63.235 17.948C62.6842 17.0033 61.8867 16.2262 60.928 15.7C52.408 10.7893 43.8814 5.87834 35.348 0.967004C34.3277 0.325302 33.1447 -0.0102206 31.9394 0.000237214C30.7341 0.010695 29.5571 0.366684 28.548 1.02599C25.156 3.01799 8.15502 12.761 3.10602 15.7C2.12727 16.2262 1.31704 17.0182 0.768604 17.9847C0.220168 18.9512 -0.0441703 20.0529 0.00602297 21.163V50.826C-0.0130756 51.9178 0.2446 52.9967 0.755024 53.962C1.31175 54.9362 2.12306 55.7406 3.10202 56.289C8.17102 59.228 25.152 68.951 28.544 70.963C29.5512 71.6273 30.7289 71.9863 31.9353 71.9967C33.1418 72.0072 34.3255 71.6687 35.344 71.022C43.864 66.0887 52.3907 61.1777 60.924 56.289C61.9114 55.7519 62.7255 54.9448 63.271 53.962C63.7814 52.9967 64.0391 51.9178 64.02 50.826L64.024 21.148Z" fill="#9A4993"/>
    <path d="M32.0938 35.8811L0.714844 53.9481C1.27157 54.9223 2.08288 55.7267 3.06184 56.2751C8.13084 59.2141 25.1118 68.9371 28.5038 70.9481C29.5109 71.6125 30.6887 71.9716 31.8951 71.982C33.1016 71.9925 34.2854 71.6539 35.3038 71.0071C43.8238 66.0737 52.3505 61.1627 60.8838 56.2741C61.8713 55.737 62.6853 54.9299 63.2308 53.9471L32.0938 35.8811Z" fill="#6A1577"/>
    <path d="M22.8037 41.226C23.7311 42.8539 25.0742 44.2064 26.6956 45.1451C28.3171 46.0839 30.1587 46.5752 32.0323 46.5689C33.9059 46.5626 35.7442 46.0589 37.3593 45.1093C38.9744 44.1596 40.3083 42.7981 41.2247 41.1639L32.0927 35.8779L22.8037 41.226Z" fill="#6A1577"/>
    <path d="M64.0267 21.148C64.0551 20.0299 63.7826 18.9248 63.2377 17.948L32.0938 35.881L63.2747 53.947C63.7855 52.9817 64.0435 51.9029 64.0247 50.811L64.0267 21.148Z" fill="#813084"/>
    <path d="M41.2252 41.1641C40.083 43.205 38.298 44.8108 36.1481 45.7315C33.9982 46.6522 31.6042 46.8361 29.3389 46.2544C27.0737 45.6728 25.0644 44.3583 23.624 42.5157C22.1837 40.6731 21.3931 38.406 21.3755 36.0673C21.3579 33.7286 22.1142 31.4498 23.5267 29.5857C24.9391 27.7217 26.9284 26.3771 29.1846 25.7614C31.4409 25.1457 33.8374 25.2935 36.0009 26.1817C38.1644 27.0699 39.9734 28.6487 41.1462 30.6721L50.3962 25.3471C48.0499 21.2981 44.432 18.1372 40.1047 16.3555C35.7773 14.5738 30.9827 14.2711 26.4657 15.4943C21.9486 16.7176 17.962 19.3983 15.125 23.1201C12.288 26.8419 10.7595 31.3964 10.777 36.0762C10.7945 40.7559 12.3569 45.2989 15.2216 48.9994C18.0863 52.6999 22.0928 55.3508 26.6189 56.5403C31.145 57.7298 35.9372 57.3913 40.2511 55.5773C44.565 53.7634 48.1592 50.5756 50.4752 46.5091L41.2252 41.1641ZM52.9252 30.9481H50.8152V41.1481H52.9252V30.9481ZM57.5992 30.9481H55.4892V41.1481H57.5992V30.9481Z" fill="white"/>
    <path d="M59.3152 32.6641H49.1152V34.774H59.3152V32.6641ZM59.3152 37.3181H49.1152V39.4281H59.3152V37.3181Z" fill="white"/>
</svg>
