<svg width="64" height="73" viewBox="0 0 64 73" fill="none" xmlns="http://www.w3.org/2000/svg">
    <path d="M5.815 65.221L0 0H63.9L58.076 65.211L31.909 72.461L5.815 65.221Z" fill="#1572B6"/>
    <path d="M31.9482 66.92L53.0932 61.06L58.0672 5.33398H31.9482V66.92Z" fill="#33A9DC"/>
    <path d="M31.9482 28.961H42.5342L43.2652 20.77H31.9482V12.77H52.0072L51.8152 14.916L49.8482 36.961H31.9482V28.961Z" fill="white"/>
    <path d="M31.9961 49.7361L31.9611 49.7461L23.0521 47.3461L22.4821 40.9661H14.4541L15.5741 53.5261L31.9591 58.0741L31.9951 58.0641L31.9961 49.7361Z" fill="#EBEBEB"/>
    <path d="M41.8528 36.623L40.8888 47.3351L31.9678 49.748V58.07L48.3678 53.5251L48.4878 52.173L49.8798 36.626L41.8528 36.623Z" fill="white"/>
    <path d="M31.976 12.772V20.772H12.654L12.494 18.972L12.13 14.917L11.936 12.772H31.976ZM31.949 28.963V36.963H23.149L22.989 35.163L22.624 31.108L22.436 28.963H31.949Z" fill="#EBEBEB"/>
</svg>
