<svg width="71" height="71" viewBox="15 12.5 46 46" fill="none" xmlns="http://www.w3.org/2000/svg">
  <path d="M57.3614 31.9985C57.2505 31.9084 56.2451 31.1526 54.1235 31.1526C53.5618 31.1526 53.0002 31.1942 52.4455 31.2982C52.0364 28.4763 49.7068 27.1034 49.6028 27.041L49.0342 26.7082L48.6598 27.249C48.1883 27.9771 47.8486 28.7744 47.6475 29.6203C47.2661 31.2289 47.4949 32.7404 48.3131 34.0301C47.3285 34.5778 45.7407 34.7165 45.4218 34.7234H19.2059C18.5195 34.7234 17.9648 35.2781 17.9648 35.9646C17.937 38.2596 18.3253 40.5407 19.1088 42.6971C20.0102 45.0684 21.3553 46.8087 23.1026 47.8765C25.0578 49.076 28.2404 49.7624 31.8528 49.7624C33.4821 49.7693 35.1115 49.6168 36.7132 49.3187C38.9389 48.9096 41.0814 48.133 43.0505 47.0167C44.673 46.0737 46.136 44.8812 47.3771 43.4736C49.4502 41.1231 50.6913 38.5022 51.6135 36.1795H51.981C54.2552 36.1795 55.6558 35.2712 56.4254 34.5085C56.9385 34.0231 57.3406 33.4338 57.5972 32.7751L57.7567 32.2967L57.3614 31.9985ZM21.6326 33.9677H25.148C25.3144 33.9677 25.453 33.829 25.453 33.6626V30.5355C25.453 30.3691 25.3144 30.2305 25.148 30.2235H21.6326C21.4662 30.2235 21.3276 30.3622 21.3276 30.5286V33.6626C21.3276 33.8359 21.4662 33.9677 21.6326 33.9677ZM26.4792 33.9677H29.9946C30.161 33.9677 30.2996 33.829 30.2996 33.6626V30.5355C30.2996 30.3691 30.161 30.2305 29.9946 30.2235H26.4792C26.3059 30.2235 26.1672 30.3622 26.1672 30.5355V33.6626C26.1672 33.8359 26.3059 33.9677 26.4792 33.9677ZM31.3882 33.9746H34.9035C35.0699 33.9746 35.2086 33.8359 35.2086 33.6695V30.5425C35.2086 30.3761 35.0699 30.2374 34.9035 30.2305H31.3882C31.2218 30.2305 31.0831 30.3691 31.0831 30.5355V33.6695C31.0831 33.8359 31.2218 33.9677 31.3882 33.9746ZM36.2487 33.9746H39.764C39.9304 33.9746 40.0691 33.8359 40.076 33.6695V30.5425C40.076 30.3691 39.9373 30.2305 39.764 30.2305H36.2487C36.0822 30.2305 35.9436 30.3691 35.9436 30.5355V33.6695C35.9436 33.8359 36.0753 33.9746 36.2487 33.9746ZM26.4723 29.4678H29.9876C30.154 29.4678 30.2927 29.3291 30.2927 29.1558V26.0287C30.2927 25.8623 30.154 25.7236 29.9876 25.7236H26.4723C26.2989 25.7236 26.1672 25.8623 26.1603 26.0287V29.1558C26.1672 29.3291 26.3059 29.4678 26.4723 29.4678ZM31.3882 29.4678H34.9035C35.0699 29.4678 35.2086 29.3291 35.2086 29.1558V26.0287C35.2086 25.8623 35.0699 25.7236 34.9035 25.7236H31.3882C31.2218 25.7236 31.0831 25.8623 31.0831 26.0287V29.1558C31.0831 29.3291 31.2218 29.4678 31.3882 29.4678ZM36.2487 29.4678H39.764C39.9373 29.4678 40.0691 29.3291 40.076 29.1558V26.0287C40.076 25.8554 39.9373 25.7236 39.764 25.7236H36.2487C36.0822 25.7236 35.9436 25.8623 35.9436 26.0287V29.1558C35.9436 29.3291 36.0753 29.4678 36.2487 29.4678ZM36.2487 24.9679H39.764C39.9373 24.9679 40.076 24.8292 40.076 24.6559V21.5219C40.076 21.3555 39.9373 21.2168 39.764 21.2168H36.2487C36.0822 21.2168 35.9436 21.3555 35.9436 21.5219V24.6559C35.9436 24.8292 36.0753 24.9679 36.2487 24.9679ZM41.1438 33.9746H44.6591C44.8255 33.9746 44.9642 33.8359 44.9642 33.6695V30.5425C44.9642 30.3691 44.8255 30.2374 44.6591 30.2305H41.1438C40.9774 30.2305 40.8387 30.3691 40.8387 30.5355V33.6695C40.8387 33.8359 40.9774 33.9746 41.1438 33.9746Z" fill="#2496ED"/>
</svg>
