<svg width="51" height="77" viewBox="0 0 51 77" fill="none" xmlns="http://www.w3.org/2000/svg">
    <path d="M12.7501 76.5003C19.7918 76.5003 25.5001 70.7919 25.5001 63.7502V51.0001H12.7501C5.70832 51.0001 0 56.7087 0 63.7502C0 70.7919 5.70832 76.5003 12.7501 76.5003Z" fill="#0ACF83"/>
    <path d="M0 38.2504C0 31.2087 5.70832 25.5004 12.7501 25.5004H25.5001V51.0005H12.7501C5.70832 51.0005 0 45.2919 0 38.2504Z" fill="#A259FF"/>
    <path d="M0 12.7501C0 5.70836 5.70832 0 12.7501 0H25.5001V25.5002H12.7501C5.70832 25.5002 0 19.7916 0 12.7501Z" fill="#F24E1E"/>
    <path d="M25.5 0H38.2501C45.2918 0 51.0001 5.70836 51.0001 12.7501C51.0001 19.7916 45.2918 25.5002 38.2501 25.5002H25.5V0Z" fill="#FF7262"/>
    <path d="M51.0001 38.2504C51.0001 45.2919 45.2918 51.0005 38.2501 51.0005C31.2083 51.0005 25.5 45.2919 25.5 38.2504C25.5 31.2087 31.2083 25.5004 38.2501 25.5004C45.2918 25.5004 51.0001 31.2087 51.0001 38.2504Z" fill="#1ABCFE"/>
</svg>
