<svg width="72" height="72" viewBox="0 0 72 72" fill="none" xmlns="http://www.w3.org/2000/svg">
    <path d="M70.642 32.7899L39.206 1.35788C38.3362 0.488427 37.1568 0 35.927 0C34.6972 0 33.5177 0.488427 32.648 1.35788L26.117 7.88688L34.398 16.1679C35.3743 15.836 36.4242 15.785 37.4281 16.0207C38.432 16.2563 39.3496 16.7691 40.0763 17.5007C40.803 18.2323 41.3096 19.1533 41.5385 20.1588C41.7674 21.1643 41.7094 22.2138 41.371 23.1879L49.352 31.1689C50.5432 30.7586 51.8391 30.769 53.0237 31.1983C54.2082 31.6276 55.2098 32.4498 55.8616 33.5281C56.5134 34.6063 56.776 35.8754 56.6056 37.1237C56.4352 38.3721 55.8421 39.5243 54.9252 40.3884C54.0083 41.2526 52.823 41.7763 51.5667 41.8725C50.3105 41.9686 49.0592 41.6313 48.0215 40.9168C46.9838 40.2023 46.2222 39.1537 45.8638 37.9458C45.5054 36.738 45.5719 35.4437 46.052 34.2789L38.61 26.8369V46.4189C39.7379 46.978 40.6402 47.9068 41.1666 49.0504C41.6929 50.194 41.8116 51.4834 41.5027 52.7039C41.1939 53.9243 40.4762 55.0021 39.4692 55.7577C38.4622 56.5133 37.2268 56.901 35.9687 56.8564C34.7105 56.8117 33.5057 56.3374 32.5548 55.5123C31.6039 54.6872 30.9645 53.5613 30.743 52.322C30.5214 51.0827 30.7311 49.8049 31.3372 48.7015C31.9434 47.5981 32.9092 46.7357 34.074 46.2579V26.4899C33.4009 26.2131 32.7891 25.806 32.274 25.2919C31.7588 24.7779 31.3503 24.167 31.0721 23.4946C30.7938 22.8221 30.6513 22.1012 30.6526 21.3734C30.654 20.6456 30.7992 19.9253 31.08 19.2539L22.917 11.0899L1.35797 32.6439C0.48846 33.5138 0 34.6934 0 35.9234C0 37.1533 0.48846 38.333 1.35797 39.2029L32.795 70.6389C33.6649 71.5084 34.8445 71.9968 36.0745 71.9968C37.3044 71.9968 38.4841 71.5084 39.354 70.6389L70.643 39.3489C71.5125 38.4788 72.001 37.299 72.001 36.0689C72.001 34.8388 71.5125 33.659 70.643 32.7889L70.642 32.7899Z" fill="#F34F29"/>
</svg>
