<svg width="64" height="73" viewBox="0 0 64 73" fill="none" xmlns="http://www.w3.org/2000/svg">
    <path d="M5.815 65.222L0 0H63.9L58.076 65.212L31.91 72.461L5.815 65.222Z" fill="#E44D26"/>
    <path d="M31.9492 66.9222L53.0932 61.0612L58.0682 5.33521H31.9492V66.9222Z" fill="#F16529"/>
    <path d="M31.9491 29.523H21.3631L20.6321 21.333H31.9491V13.333H11.8901L12.0821 15.479L14.0481 37.523H31.9481L31.9491 29.523ZM31.9491 50.298L31.9141 50.308L23.0011 47.901L22.4321 41.522H14.4011L15.5221 54.082L31.9121 58.633L31.9491 58.623V50.298Z" fill="#EBEBEB"/>
    <path d="M31.9209 29.5231V37.5231H41.7689L40.8409 47.8971L31.9189 50.3051V58.6281L48.3189 54.0831L48.4399 52.7331L50.3199 31.6741L50.5149 29.5261H31.9209V29.5231ZM31.9209 13.3321V21.3321H51.2429L51.4029 19.5321L51.7679 15.4761L51.9589 13.3301L31.9209 13.3321Z" fill="white"/>
</svg>
