<svg width="64" height="73" viewBox="0 0 64 73" fill="none" xmlns="http://www.w3.org/2000/svg">
    <path d="M5.815 65.222L0 0H63.9L58.079 65.211L31.909 72.466L5.815 65.222Z" fill="#D4B830"/>
    <path d="M31.9512 66.921L53.0942 61.059L58.0682 5.33301H31.9512V66.921Z" fill="#FDD83C"/>
    <path d="M53.8058 28.961H42.5308V20.771H54.5168L55.2268 12.771H34.1698V36.961H45.0758L44.1128 47.335L34.1708 49.145V57.484L51.5898 53.52L53.8058 28.961ZM29.7998 12.77H11.9378L12.6798 20.77H21.7708V47.991L17.3158 47.339L16.7458 40.959H8.71582L9.83582 53.519C29.7998 57.482 9.91182 53.519 29.7998 57.482V12.77Z" fill="white"/>
</svg>
