<svg width="54" height="72" viewBox="0 0 54 72" fill="none" xmlns="http://www.w3.org/2000/svg">
    <path d="M17.1014 55.6809C17.1014 55.6809 14.3515 57.2809 19.0605 57.8209C24.0267 58.5199 29.0789 58.3064 33.9684 57.1909C35.2329 57.9458 36.559 58.5925 37.9324 59.1239C23.8324 65.1629 6.03244 58.7739 17.1014 55.6809ZM15.3784 47.7989C15.3784 47.7989 12.2934 50.0829 17.0064 50.5709C23.4247 51.3327 29.9251 51.0194 36.2404 49.6439C37.0925 50.4429 38.1002 51.0577 39.2004 51.4499C22.1604 56.4339 3.18144 51.8419 15.3734 47.7949L15.3784 47.7989Z" fill="#0074BD"/>
    <path d="M29.8963 34.423C33.3713 38.423 28.9852 42.023 28.9852 42.023C28.9852 42.023 37.8043 37.471 33.7553 31.769C29.9723 26.454 27.0722 23.814 42.7732 14.707C42.7732 14.707 18.1263 20.862 29.8963 34.423Z" fill="#EA2D2E"/>
    <path d="M48.5404 61.511C48.5404 61.511 50.5764 63.1899 46.2974 64.4869C38.1634 66.9509 12.4354 67.694 5.29038 64.587C2.72338 63.469 7.53939 61.919 9.05439 61.592C9.86646 61.3935 10.7005 61.2994 11.5364 61.312C8.67938 59.301 -6.92862 65.263 3.60938 66.973C32.3464 71.631 55.9934 64.873 48.5404 61.511ZM18.4244 39.63C18.4244 39.63 5.33939 42.738 13.7914 43.868C17.3604 44.346 24.4724 44.236 31.1024 43.68C36.5184 43.225 41.9534 42.253 41.9534 42.253C40.811 42.7503 39.7108 43.3392 38.6634 44.014C25.3724 47.514 -0.296601 45.882 7.0944 42.308C10.6045 40.5265 14.4891 39.6084 18.4254 39.63H18.4244ZM41.8984 52.751C55.4074 45.733 49.1614 38.988 44.7984 39.897C44.2736 39.9944 43.7573 40.1331 43.2544 40.312C43.5401 39.9053 43.9425 39.595 44.4084 39.4219C53.0334 36.3909 59.6654 48.364 41.6264 53.107C41.7382 53.006 41.8304 52.8853 41.8984 52.751Z" fill="#0074BD"/>
    <path d="M33.7554 0C33.7554 0 41.2354 7.48502 26.6554 18.99C14.9654 28.222 23.9904 33.49 26.6554 39.501C19.8314 33.345 14.8253 27.925 18.1833 22.88C23.1123 15.48 36.7754 11.887 33.7554 0Z" fill="#EA2D2E"/>
    <path d="M19.7522 71.7741C32.7162 72.6031 52.6302 71.3131 53.1012 65.1741C53.1012 65.1741 52.1952 67.5001 42.3862 69.3451C31.54 71.2055 20.4711 71.3742 9.57324 69.8451C9.57324 69.8451 11.2312 71.2181 19.7522 71.7661V71.7741Z" fill="#0074BD"/>
</svg>
