<svg width="71" height="73" viewBox="0 0 71 73" fill="none" xmlns="http://www.w3.org/2000/svg">
  <path fill-rule="evenodd" clip-rule="evenodd" d="M70.349 16.3995C70.3755 16.4973 70.389 16.5981 70.389 16.6995V32.2495C70.389 32.4491 70.3363 32.6453 70.2363 32.8181C70.1362 32.9908 69.9922 33.1341 69.819 33.2335L56.763 40.7505V55.6505C56.763 55.8498 56.7107 56.0456 56.6111 56.2183C56.5116 56.391 56.3685 56.5345 56.196 56.6345L28.949 72.3185C28.8849 72.3517 28.818 72.3791 28.749 72.4005C28.723 72.4095 28.699 72.4245 28.672 72.4315C28.4816 72.4816 28.2814 72.4816 28.091 72.4315C28.06 72.4225 28.031 72.4055 28.002 72.3945C27.9376 72.3742 27.875 72.3484 27.815 72.3174L0.569992 56.6315C0.396897 56.532 0.253068 56.3887 0.153 56.2159C0.0529321 56.0432 0.000168196 55.8471 0 55.6475V8.98346C0.000163165 8.88214 0.0136044 8.78129 0.0399933 8.68347C0.0489933 8.65047 0.0679866 8.62144 0.0799866 8.58344C0.0989402 8.52283 0.123034 8.46398 0.151993 8.40747C0.175972 8.37261 0.202021 8.33918 0.229996 8.30743C0.260116 8.26109 0.293527 8.21702 0.329987 8.17548C0.365459 8.14477 0.402869 8.11636 0.441986 8.09045C0.481028 8.05667 0.522842 8.02623 0.566986 7.99945L14.192 0.151489C14.3645 0.0522527 14.56 0 14.759 0C14.958 0 15.1535 0.0522527 15.326 0.151489L28.949 7.99945C28.9925 8.03037 29.0343 8.0638 29.074 8.09949C29.1629 8.15148 29.2359 8.22684 29.285 8.31744C29.3127 8.34919 29.3384 8.38262 29.362 8.41748C29.3914 8.47406 29.4161 8.53288 29.436 8.59344C29.451 8.62607 29.4644 8.65948 29.476 8.69348C29.5025 8.79128 29.516 8.89214 29.516 8.99347V38.1295L40.869 31.5925V16.6924C40.8694 16.5928 40.8829 16.4936 40.909 16.3975C40.919 16.3635 40.937 16.3335 40.949 16.2975C40.9692 16.2371 40.994 16.1782 41.023 16.1215C41.0464 16.0865 41.0721 16.0531 41.1 16.0215C41.1302 15.9752 41.1636 15.931 41.2 15.8895C41.2352 15.8588 41.2722 15.8304 41.311 15.8044C41.3503 15.7682 41.392 15.7349 41.436 15.7045L55.065 7.86646C55.2374 7.76712 55.433 7.71484 55.632 7.71484C55.831 7.71484 56.0265 7.76712 56.199 7.86646L69.823 15.7104C69.8678 15.741 69.9105 15.7744 69.951 15.8105C69.986 15.8385 70.028 15.8644 70.06 15.8954C70.0961 15.9376 70.1295 15.9821 70.16 16.0284C70.1881 16.0598 70.2138 16.0933 70.237 16.1285C70.2666 16.1849 70.2914 16.2438 70.311 16.3044C70.3265 16.3369 70.3399 16.3703 70.351 16.4045L70.349 16.3995ZM68.117 31.5934V18.6575L63.35 21.4045L56.763 25.1945V38.1295L68.118 31.5925L68.117 31.5934ZM54.496 54.9935V42.0475L48.017 45.7474L29.517 56.3044V69.3715L54.496 54.9935ZM2.267 10.9504V54.9935L27.249 69.3705V56.2994L14.202 48.9185H14.196L13.966 48.7425C13.9319 48.7051 13.9005 48.6653 13.872 48.6235C13.8416 48.5881 13.8132 48.551 13.787 48.5125C13.763 48.4669 13.7429 48.4194 13.727 48.3705C13.7055 48.3294 13.6874 48.2866 13.673 48.2425C13.6611 48.1878 13.6534 48.1323 13.65 48.0765C13.6415 48.0342 13.6359 47.9915 13.633 47.9485V17.4844L7.041 13.6905L2.27299 10.9485L2.267 10.9504ZM14.757 2.45044L3.405 8.98645L14.753 15.5204L26.103 8.98547L14.754 2.45245L14.757 2.45044ZM20.657 43.2275L27.249 39.4335V10.9474L22.481 13.6924L15.898 17.4844V45.9734L20.657 43.2275ZM55.629 10.1635L44.279 16.6974L55.629 23.2314L66.977 16.6965L55.629 10.1635ZM54.496 25.1974L47.907 21.4075L43.139 18.6625V31.5955L49.724 35.3865L54.496 38.1324V25.1974ZM28.377 54.3464L45.025 44.8464L53.347 40.0975L42.006 33.5674L28.949 41.0785L17.049 47.9305L28.377 54.3464Z" fill="#FF2D20"/>
</svg>
