<svg width="75" height="72" viewBox="0 0 75 72" fill="none" xmlns="http://www.w3.org/2000/svg">
  <path d="M74.287 61.475C73.9812 60.062 73.4632 58.7061 72.7516 57.456C71.2238 55.0178 69.1696 52.9725 66.7476 51.478C64.3943 49.959 61.8983 48.686 59.297 47.678C54.3621 45.723 54.601 45.788 51.2698 44.57C43.8894 41.87 39.7924 37.864 39.5349 33.516C39.411 31.41 41.4166 24.549 49.6856 26.18C51.6305 26.5411 53.5267 27.1373 55.3346 27.956C57.0212 28.737 61.9425 31.184 63.6671 34.667C63.7978 36.204 64.3255 36.798 66.4345 37.819C68.0206 38.587 69.6213 39.419 69.7647 41.312C69.7716 41.3674 69.7972 41.4185 69.8372 41.4564C69.8772 41.4942 69.9289 41.5164 69.9832 41.519C70.0265 41.5189 70.0688 41.5056 70.1047 41.4808C70.1406 41.4561 70.1686 41.421 70.1852 41.38C70.4042 40.9174 70.7539 40.5331 71.1888 40.2768C71.6237 40.0205 72.1237 39.9042 72.6238 39.943C72.6701 39.9579 72.7199 39.9562 72.765 39.938C72.8101 39.9198 72.8477 39.8862 72.8716 39.843C72.8956 39.8002 72.9052 39.7504 72.8988 39.7014C72.8925 39.6524 72.8706 39.607 72.8365 39.572L71.3987 38.105C70.7779 37.4728 70.2492 36.752 69.8291 35.965C69.7049 35.7324 69.5914 35.4944 69.4887 35.251L69.2936 34.77C67.996 31.3961 66.0236 28.3381 63.5032 25.793C62.2426 24.5525 60.856 23.4539 59.3672 22.516C57.8939 21.5575 56.3012 20.8071 54.6322 20.285L54.5084 20.724C56.0909 21.3266 57.5873 22.1442 58.9575 23.155C60.3383 24.1425 61.6117 25.279 62.756 26.545C64.3627 28.3051 65.6538 30.342 66.5701 32.562L63.2437 28.315L63.3354 29.785L60.6041 26.631L60.7729 28.108L58.1245 25.915L58.3517 26.915C57.7548 26.515 52.4609 24.352 49.8183 23.334C47.1757 22.316 41.955 17.297 43.4612 10.944C43.4612 10.944 40.9932 9.96102 39.2247 9.29102C37.4877 8.65568 35.7383 8.05836 33.9766 7.49902C30.4649 6.37202 26.9376 5.34403 23.3899 4.38403C19.8421 3.42403 16.2689 2.56499 12.6792 1.79999C9.09062 1.00998 5.46492 0.409204 1.81633 0L1.75097 0.571045C5.34614 1.1737 8.90897 1.96405 12.4255 2.93903C15.9483 3.88969 19.446 4.93433 22.9187 6.073C26.3914 7.21166 29.8325 8.42569 33.2421 9.71503C35.3069 10.4944 37.3508 11.3277 39.3739 12.215C37.3254 11.802 35.2828 11.475 33.2353 11.202C29.5402 10.721 25.8422 10.417 22.1403 10.246C18.4384 10.075 14.7364 10.046 11.0404 10.188C7.34104 10.3033 3.65303 10.6668 0 11.276L0.072175 11.797C3.71761 11.4466 7.38155 11.3418 11.0404 11.483C14.6984 11.598 18.3506 11.883 21.9813 12.3C25.612 12.717 29.2261 13.271 32.7924 13.989C34.9921 14.436 37.182 14.955 39.3154 15.567C37.6412 15.4042 35.9595 15.3374 34.2781 15.367C31.0021 15.4392 27.7364 15.7692 24.5097 16.354C21.303 16.9123 18.1349 17.6826 15.0252 18.66C11.9052 19.5945 8.89829 20.8873 6.06157 22.514L6.25666 22.87C9.15906 21.5071 12.2023 20.4847 15.3286 19.822C18.438 19.1187 21.5885 18.622 24.7604 18.335C27.9054 18.0287 31.0688 17.9709 34.2225 18.162C36.9595 18.31 39.669 18.7975 42.2916 19.614C42.515 20.6564 42.8001 21.684 43.1451 22.691C36.0339 26.044 35.1336 32.074 35.715 35.309C36.3978 39.102 39.0754 41.994 42.2389 43.867C44.7772 45.2501 47.4194 46.4229 50.1402 47.374C52.707 48.272 55.2027 49.3706 57.6055 50.66C59.8773 52.0288 61.8154 53.9096 63.273 56.16C66.3428 60.679 67.5709 66.378 67.9387 71.999L68.5483 71.982C68.562 66.289 67.768 60.329 64.785 55.172C63.79 53.4488 62.5694 51.8735 61.1572 50.49C62.8149 51.1364 64.4269 51.8996 65.9819 52.774C68.3232 54.0274 70.3521 55.8158 71.9118 58.001C72.6401 59.1248 73.1943 60.3574 73.5545 61.655C73.8795 62.9849 74.064 64.3467 74.1046 65.717H74.6265C74.6606 64.2944 74.5469 62.872 74.287 61.474V61.475Z" fill="#3B9FD1"/>
</svg>
