<svg width="59" height="73" viewBox="0 0 59 73" fill="none" xmlns="http://www.w3.org/2000/svg">
    <path d="M0.0192632 61.937V48.105C0.0192632 48.105 6.00925 57.658 29.2853 57.327C52.5613 56.996 58.5512 48.105 58.5512 48.105V61.937C58.5512 67.752 45.4513 72.466 29.2853 72.466C13.1193 72.466 0.0192632 67.752 0.0192632 61.937ZM0.0192632 40.88V27.048C0.0192632 27.048 6.00925 36.6 29.2853 36.27C52.5613 35.94 58.5512 27.048 58.5512 27.048V40.88C58.5512 46.695 45.4513 51.409 29.2853 51.409C13.1193 51.409 0.0192632 46.696 0.0192632 40.88ZM17.6673 29.011C14.4894 28.6334 11.348 27.9943 8.27524 27.1C6.07464 26.5075 3.98529 25.5604 2.08927 24.296C0.740271 23.302 0.00025074 22.219 0.00025074 21.091V8.60596C-0.000753691 8.55255 0.00126144 8.49916 0.0062627 8.44598C0.0902627 7.25798 0.984261 6.13396 2.52326 5.11596C4.50012 3.91603 6.64272 3.01341 8.88227 2.43701C11.9041 1.60426 14.986 1.00712 18.1003 0.650999C25.5226 -0.217 33.0209 -0.217 40.4432 0.650999C43.5571 1.00734 46.6387 1.60447 49.6603 2.43701C51.8996 3.01401 54.0421 3.91658 56.0193 5.11596C57.5603 6.13396 58.4563 7.25798 58.5423 8.44598C58.5489 8.53983 58.5506 8.63394 58.5472 8.72796V20.996C58.5882 22.156 57.8472 23.267 56.4692 24.286C54.5761 25.5525 52.4891 26.5017 50.2903 27.096C47.2182 27.9904 44.0775 28.6295 40.9002 29.007C33.1839 29.9483 25.3817 29.9483 17.6653 29.007L17.6673 29.011Z" fill="#002B4F"/>
    <path d="M31.0653 58.577C30.3106 59.1689 29.8039 60.0212 29.6443 60.967C29.4933 62.41 29.7953 66.975 29.7953 66.975L28.4173 66.394C28.3483 64.6917 28.1477 62.9973 27.8173 61.326C27.6731 60.6436 27.4285 59.9865 27.0913 59.376C27.5608 58.6164 27.8578 57.7629 27.9613 56.876C28.1553 55.347 28.3813 52.365 28.3813 52.365C28.3813 52.365 28.6333 53.413 28.8913 54.465C29.0789 55.3442 29.3295 56.2088 29.6413 57.052C29.9713 57.6784 30.4629 58.205 31.0653 58.577Z" fill="#B8C4C2"/>
    <path d="M28.3721 4.22705C28.2655 5.36146 28.0047 6.47604 27.5971 7.54004C27.1051 8.34004 15.1381 18.724 14.7021 32.04C14.2661 45.356 26.2021 60.4401 27.3641 59.4041C28.3761 57.7241 28.5211 52.8461 28.5211 52.8461L28.6581 36.5291V10.574L28.3721 4.22705Z" fill="#10AA50"/>
    <path d="M28.366 4.25708C28.909 5.67929 29.5864 7.04648 30.389 8.34009C33.695 12.2611 42.731 22.9521 42.455 35.6111C42.167 48.8801 31.674 58.6691 30.883 58.7451C30.092 58.8211 28.932 55.3451 28.435 53.4821C27.938 51.6191 28.368 4.25708 28.368 4.25708H28.366Z" fill="#12924F"/>
</svg>
