<svg width="65" height="72" viewBox="0 0 65 72" fill="none" xmlns="http://www.w3.org/2000/svg">
    <path d="M32.5212 0.0378936C31.8915 0.0273028 31.269 0.172617 30.7092 0.460893L1.72216 16.7439C1.19572 17.034 0.757654 17.4613 0.454471 17.9803C0.151287 18.4994 -0.00570496 19.0908 0.000158425 19.6919V52.3259C0.00902993 52.924 0.172215 53.5096 0.473906 54.0261C0.775596 54.5426 1.20557 54.9724 1.72216 55.2739L30.7092 71.5569C31.2467 71.8535 31.8507 72.009 32.4647 72.009C33.0786 72.009 33.6826 71.8535 34.2202 71.5569L63.2082 55.2739C63.7343 54.9835 64.1721 54.5562 64.4751 54.0372C64.7781 53.5182 64.935 52.9268 64.9292 52.3259V19.6929C64.9202 19.0948 64.757 18.5092 64.4553 17.9928C64.1536 17.4763 63.7237 17.0465 63.2072 16.7449C63.2072 16.7449 33.1362 0.0378936 32.5212 0.0378936Z" fill="url(#paint0_linear_157_841)"/>
    <path d="M34.1203 0.712956C33.6868 0.473799 33.2386 0.262374 32.7783 0.0799561L0.571289 54.187C0.83146 54.5808 1.16565 54.9205 1.55529 55.187L30.7463 71.587C31.2389 71.8514 31.7873 71.9947 32.3463 72.005C32.7232 72.0004 33.0961 71.9265 33.4463 71.787L64.2273 17.657C63.9955 17.3613 63.7267 17.0968 63.4273 16.87L34.1203 0.712956Z" fill="url(#paint1_linear_157_841)"/>
    <path fill-rule="evenodd" clip-rule="evenodd" d="M63.2772 55.2639C63.6921 55.0133 64.0493 54.6775 64.325 54.2789C64.6008 53.8802 64.789 53.4276 64.8772 52.9509L32.7662 0.0699256C31.9119 -0.099915 31.0249 0.0419939 30.2662 0.469925C30.2662 0.469925 1.59223 16.8109 1.52823 16.8559L1.28223 17.0299L32.5462 72.0059C33.0233 72.0105 33.4965 71.9187 33.9372 71.7359L63.2772 55.2639Z" fill="url(#paint2_linear_157_841)"/>
    <defs>
        <linearGradient id="paint0_linear_157_841" x1="18.5698" y1="67.115" x2="30.8999" y2="26.3047" gradientUnits="userSpaceOnUse">
            <stop stop-color="#3FA62E"/>
            <stop offset="1" stop-color="#41873F"/>
        </linearGradient>
        <linearGradient id="paint1_linear_157_841" x1="28.1343" y1="39.7826" x2="111.237" y2="5.49881" gradientUnits="userSpaceOnUse">
            <stop offset="0.138" stop-color="#41873F"/>
            <stop offset="0.403" stop-color="#54A044"/>
            <stop offset="0.714" stop-color="#66B848"/>
            <stop offset="0.908" stop-color="#6CC04A"/>
        </linearGradient>
        <linearGradient id="paint2_linear_157_841" x1="-1.51595" y1="36.003" x2="65.8312" y2="36.003" gradientUnits="userSpaceOnUse">
            <stop offset="0.092" stop-color="#6CC04A"/>
            <stop offset="0.286" stop-color="#66B848"/>
            <stop offset="0.597" stop-color="#54A044"/>
            <stop offset="0.862" stop-color="#41873F"/>
        </linearGradient>
    </defs>
</svg>
