<svg width="69" height="72" viewBox="0 0 69 72" fill="none" xmlns="http://www.w3.org/2000/svg">
  <path d="M52.6655 52.9717C53.1515 48.9267 53.0055 48.3337 56.0185 48.9887L56.7835 49.0557C59.2172 49.1582 61.6455 48.7494 63.9115 47.8557C67.7445 46.0777 70.0165 43.1077 66.2375 43.8887C57.6165 45.6667 57.0245 42.7477 57.0245 42.7477C66.1245 29.2417 69.9325 12.0967 66.6485 7.89968C57.6925 -3.54731 42.1855 1.86669 41.9265 2.00869L41.8435 2.02369C39.9496 1.64337 38.0241 1.44248 36.0925 1.42369C32.8339 1.25956 29.618 2.22215 26.9855 4.14968C26.9855 4.14968 -0.678506 -7.25031 0.608494 18.4827C0.882494 23.9567 8.45449 59.9007 17.4855 49.0437C20.7855 45.0737 23.9765 41.7167 23.9765 41.7167C25.5825 42.8024 27.5154 43.2972 29.4455 43.1167L29.5995 42.9857C29.5534 43.5015 29.5742 44.0212 29.6615 44.5317C27.3355 47.1317 28.0185 47.5877 23.3675 48.5447C18.6615 49.5147 21.4265 51.2447 23.2305 51.6927C25.4185 52.2397 30.4815 53.0147 33.9025 48.2267L33.7665 48.7727C34.6795 49.5027 34.6175 54.0207 34.7465 57.2487C34.8755 60.4767 35.0925 63.4887 35.7465 65.2647C36.4005 67.0407 37.1805 71.6147 43.2935 70.3047C48.4025 69.2097 52.3085 67.6337 52.6645 52.9757" fill="black"/>
  <path d="M52.6655 52.9717C53.1515 48.9267 53.0055 48.3337 56.0185 48.9887L56.7835 49.0557C59.2172 49.1582 61.6455 48.7494 63.9115 47.8557C67.7445 46.0777 70.0165 43.1077 66.2375 43.8887C57.6165 45.6667 57.0245 42.7477 57.0245 42.7477C66.1245 29.2417 69.9325 12.0967 66.6485 7.89968C57.6925 -3.54731 42.1855 1.86669 41.9265 2.00869L41.8435 2.02369C39.9496 1.64337 38.0241 1.44248 36.0925 1.42369C32.8339 1.25956 29.618 2.22215 26.9855 4.14968C26.9855 4.14968 -0.678506 -7.25031 0.608494 18.4827C0.882494 23.9567 8.45449 59.9007 17.4855 49.0437C20.7855 45.0737 23.9765 41.7167 23.9765 41.7167C25.5825 42.8024 27.5154 43.2972 29.4455 43.1167L29.5995 42.9857C29.5534 43.5015 29.5742 44.0212 29.6615 44.5317C27.3355 47.1317 28.0185 47.5877 23.3675 48.5447C18.6615 49.5147 21.4265 51.2447 23.2305 51.6927C25.4185 52.2397 30.4815 53.0147 33.9025 48.2267L33.7665 48.7727C34.6795 49.5027 34.6175 54.0207 34.7465 57.2487C34.8755 60.4767 35.0925 63.4887 35.7465 65.2647C36.4005 67.0407 37.1805 71.6147 43.2935 70.3047C48.4025 69.2097 52.3085 67.6337 52.6645 52.9757" stroke="black"/>
  <path d="M66.2425 43.8887C57.6215 45.6667 57.0285 42.7477 57.0285 42.7477C66.1285 29.2407 69.9365 12.0957 66.6525 7.89869C57.6935 -3.54731 42.1855 1.86569 41.9265 2.00969L41.8435 2.02469C39.9493 1.6444 38.0234 1.44351 36.0915 1.42469C32.8333 1.26051 29.6179 2.22273 26.9855 4.14969C26.9855 4.14969 -0.679484 -7.25031 0.607516 18.4837C0.881516 23.9577 8.45352 59.9017 17.4845 49.0447C20.7845 45.0747 23.9745 41.7177 23.9745 41.7177C25.5805 42.8034 27.5134 43.2982 29.4435 43.1177L29.5975 42.9867C29.5517 43.5025 29.5725 44.0222 29.6595 44.5327C27.3325 47.1327 28.0165 47.5887 23.3655 48.5457C18.6595 49.5157 21.4235 51.2457 23.2295 51.6937C25.4175 52.2407 30.4805 53.0157 33.9015 48.2277L33.7655 48.7737C34.6775 49.5037 35.3175 53.5227 35.2095 57.1667C35.1015 60.8107 35.0305 63.3117 35.7485 65.2667C36.4665 67.2217 37.1825 71.6167 43.2965 70.3067C48.4055 69.2117 51.0535 66.3747 51.4215 61.6417C51.6825 58.2767 52.2745 58.7747 52.3115 55.7667L52.7855 54.3427C53.3325 49.7817 52.8725 48.3107 56.0205 48.9947L56.7855 49.0617C59.2193 49.1642 61.6475 48.7554 63.9135 47.8617C67.7455 46.0837 70.0135 43.1137 66.2395 43.8947L66.2425 43.8887Z" fill="#336791"/>
  <path d="M34.2723 46.5027C34.0353 54.9897 34.3323 63.5347 35.1623 65.6117C35.9923 67.6887 37.7713 71.7287 43.8863 70.4187C48.9953 69.3187 50.8533 67.2037 51.6603 62.5257C52.2543 59.0837 53.3993 49.5257 53.5463 47.5667" stroke="white" stroke-linecap="round" stroke-linejoin="round"/>
  <path d="M26.9433 3.95869C26.9433 3.95869 -0.740678 -7.35631 0.543322 18.3747C0.817322 23.8487 8.38932 59.7937 17.4213 48.9367C20.7213 44.9667 23.7063 41.8517 23.7063 41.8517" stroke="white" stroke-linecap="round" stroke-linejoin="round"/>
  <path d="M41.8962 1.89365C40.9382 2.19365 57.2963 -4.08634 66.5963 7.79366C69.8803 11.9937 66.0743 29.1357 56.9723 42.6427" stroke="white" stroke-linecap="round" stroke-linejoin="round"/>
  <path d="M56.9635 42.6417C56.9635 42.6417 57.5565 45.5617 66.1785 43.7817C69.9555 43.0017 67.6785 45.9707 63.8515 47.7507C60.7075 49.2097 53.6585 49.5837 53.5425 47.5677C53.2425 42.3677 57.2525 43.9457 56.9635 42.6417ZM56.9635 42.6417C56.7025 41.4677 54.9105 40.3157 53.7255 37.4417C52.6905 34.9337 39.5345 15.7007 57.3735 18.5567C58.0275 18.4217 52.7205 1.5887 36.0265 1.3147C19.3325 1.0407 19.8835 21.8407 19.8835 21.8407" stroke="white" stroke-linecap="round" stroke-linejoin="bevel"/>
  <path d="M29.6044 44.4206C27.2774 47.0206 27.9614 47.4766 23.3104 48.4336C18.6044 49.4036 21.3694 51.1336 23.1734 51.5816C25.3614 52.1296 30.4244 52.9046 33.8454 48.1146C34.8874 46.6566 33.8394 44.3296 32.4084 43.7356C31.9413 43.4729 31.3918 43.3975 30.8712 43.5247C30.3506 43.6519 29.8978 43.9721 29.6044 44.4206Z" stroke="white" stroke-linecap="round" stroke-linejoin="round"/>
  <path d="M29.4463 44.3746C29.2123 42.8466 29.9463 41.0276 30.7383 38.8996C31.9243 35.7076 34.6623 32.5146 32.4723 22.3876C30.8403 14.8416 19.8923 20.8176 19.8863 21.8406C20.1531 25.1835 20.0918 28.5446 19.7033 31.8756C18.8183 38.2026 23.7293 43.5526 29.3833 43.0056" stroke="white" stroke-linecap="round" stroke-linejoin="round"/>
  <path d="M26.8374 21.6877C26.7884 22.0367 27.4774 22.9697 28.3754 23.0947C28.7253 23.1389 29.0803 23.0704 29.3886 22.899C29.6968 22.7276 29.9424 22.4623 30.0894 22.1417C30.1384 21.7927 29.4494 21.4077 28.5504 21.2817C27.6514 21.1557 26.8844 21.3387 26.8374 21.6877Z" fill="white" stroke="white"/>
  <path d="M54.1645 20.9756C54.2135 21.3246 53.5244 22.2576 52.6264 22.3826C52.2764 22.427 51.9213 22.3584 51.6129 22.187C51.3044 22.0156 51.0587 21.7503 50.9115 21.4296C50.8645 21.0806 51.5525 20.6956 52.4505 20.5696C53.3485 20.4436 54.1165 20.6266 54.1645 20.9756Z" fill="white" stroke="white"/>
  <path d="M57.3774 18.5566C57.5254 21.2976 56.7874 23.1646 56.6934 26.0836C56.5554 30.3256 58.7154 35.1836 55.4614 40.0406" stroke="white" stroke-linecap="round" stroke-linejoin="round"/>
</svg>
