<svg width="72" height="72" viewBox="0 0 72 72" fill="none" xmlns="http://www.w3.org/2000/svg">
    <path d="M35.1875 0.000872368C32.4367 0.003654 29.691 0.237813 26.9795 0.700872C19.7055 1.98487 18.3875 4.67287 18.3875 9.63087V16.1769H35.5635V18.3589H11.9395C9.41117 18.3127 6.94786 19.1615 4.98454 20.7552C3.02122 22.3489 1.68417 24.5851 1.2095 27.0689C-0.403165 32.7761 -0.403165 38.8186 1.2095 44.5259C2.4305 49.6119 5.34649 53.2339 10.3385 53.2339H16.2445V45.3859C16.3067 42.5647 17.459 39.8773 19.4597 37.8874C21.4604 35.8975 24.1541 34.7598 26.9755 34.7129H44.1325C45.2696 34.7042 46.3939 34.4716 47.4411 34.0282C48.4883 33.5848 49.4378 32.9393 50.2354 32.1287C51.033 31.3182 51.663 30.3583 52.0894 29.3041C52.5158 28.2499 52.7303 27.122 52.7205 25.9849V9.63087C52.7205 4.97487 48.7935 1.47787 44.1325 0.700872C41.174 0.217931 38.1801 -0.0162217 35.1825 0.000872368H35.1875ZM25.8935 5.26587C26.5427 5.25576 27.1802 5.4389 27.7251 5.79201C28.2699 6.14511 28.6975 6.65224 28.9534 7.24894C29.2093 7.84563 29.2821 8.50495 29.1624 9.14309C29.0427 9.78122 28.7359 10.3694 28.2811 10.8327C27.8264 11.2961 27.2441 11.6138 26.6083 11.7455C25.9725 11.8771 25.312 11.8168 24.7106 11.5721C24.1092 11.3274 23.5941 10.9094 23.2309 10.3713C22.8676 9.83312 22.6726 9.19913 22.6705 8.54987C22.6678 7.68859 23.0045 6.86092 23.6078 6.24621C24.2111 5.63151 25.0323 5.27928 25.8935 5.26587Z" fill="url(#paint0_linear_148_571)"/>
    <path d="M54.8627 18.3599V25.9879C54.8313 28.8392 53.6956 31.5673 51.6944 33.5986C49.6931 35.6298 46.9823 36.806 44.1317 36.8799H26.9747C24.6869 36.9253 22.5076 37.864 20.9028 39.4951C19.2979 41.1263 18.3949 43.3206 18.3867 45.6089V61.9639C18.3867 66.6179 22.4337 69.3569 26.9747 70.6919C32.5604 72.4381 38.546 72.4381 44.1317 70.6919C48.4557 69.4389 52.7197 66.9199 52.7197 61.9639V55.4169H35.5637V53.2339H61.3087C66.3007 53.2339 68.1617 49.7519 69.8977 44.5259C71.6907 39.1449 71.6137 33.9709 69.8977 27.0689C68.6637 22.0989 66.3077 18.3589 61.3087 18.3589L54.8627 18.3599ZM45.2117 59.7799C45.8618 59.7698 46.5001 59.9534 47.0454 60.3074C47.5907 60.6614 48.0182 61.1697 48.2736 61.7675C48.5289 62.3654 48.6005 63.0258 48.4792 63.6645C48.3579 64.3032 48.0491 64.8913 47.5924 65.3539C47.1356 65.8165 46.5514 66.1326 45.9143 66.262C45.2772 66.3914 44.616 66.3282 44.0149 66.0804C43.4139 65.8326 42.9002 65.4115 42.5393 64.8707C42.1785 64.33 41.9868 63.694 41.9887 63.0439C41.9857 62.6179 42.0667 62.1954 42.2271 61.8007C42.3875 61.406 42.6241 61.0468 42.9235 60.7436C43.2228 60.4405 43.579 60.1993 43.9716 60.0339C44.3643 59.8686 44.7857 59.7822 45.2117 59.7799Z" fill="url(#paint1_linear_148_571)"/>
    <defs>
        <linearGradient id="paint0_linear_148_571" x1="39.9623" y1="859.408" x2="110.386" y2="799.98" gradientUnits="userSpaceOnUse">
            <stop stop-color="#5A9FD4"/>
            <stop offset="1" stop-color="#306998"/>
        </linearGradient>
        <linearGradient id="paint1_linear_148_571" x1="136.772" y1="762.973" x2="111.331" y2="797.9" gradientUnits="userSpaceOnUse">
            <stop stop-color="#FFD43B"/>
            <stop offset="1" stop-color="#FFE873"/>
        </linearGradient>
    </defs>
</svg>
