<svg width="82" height="74" viewBox="0 0 82 74" fill="none" xmlns="http://www.w3.org/2000/svg">
    <path d="M40.981 42.6831C45.1231 42.6831 48.481 39.3252 48.481 35.1831C48.481 31.041 45.1231 27.6831 40.981 27.6831C36.8388 27.6831 33.481 31.041 33.481 35.1831C33.481 39.3252 36.8388 42.6831 40.981 42.6831Z" fill="#61DAFB"/>
    <path d="M53.971 42.636C64.395 23.87 66.629 5.92404 58.961 2.55104C51.293 -0.821965 36.625 11.651 26.199 30.419C15.773 49.187 13.535 67.133 21.199 70.512C28.863 73.891 43.531 61.419 53.96 42.655L53.971 42.636ZM27.846 42.655C38.275 61.419 52.946 73.89 60.606 70.511C68.266 67.132 66.033 49.183 55.606 30.418C45.179 11.653 30.512 -0.822965 22.844 2.55104C15.176 5.92504 17.41 23.87 27.834 42.636L27.846 42.655ZM40.914 50.187C62.397 50.187 79.814 43.427 79.806 35.087C79.798 26.747 62.392 19.997 40.906 19.996C19.42 19.995 2 26.757 2 35.092C2 43.427 19.414 50.186 40.9 50.192L40.914 50.187Z" stroke="#61DAFB" stroke-width="4"/>
</svg>
