<svg width="97" height="73" viewBox="0 0 97 73" fill="none" xmlns="http://www.w3.org/2000/svg">
    <path fill-rule="evenodd" clip-rule="evenodd" d="M0 30.2159C0.020126 30.6424 0.104051 31.0634 0.248993 31.465C0.893406 33.6824 2.02997 35.7259 3.57399 37.443C5.75267 39.898 8.22952 42.0711 10.947 43.912C13.253 45.57 15.606 47.19 17.921 48.836C18.321 49.118 18.694 49.443 19.121 49.79C18.75 49.99 18.441 50.167 18.121 50.33C15.0556 51.8452 12.1423 53.6504 9.42099 55.7209C7.73536 56.9179 6.27114 58.3995 5.09399 60.099C3.29999 62.933 2.665 65.952 4.002 69.175C4.37584 70.1174 5.00936 70.9343 5.82899 71.5309C6.09713 71.7406 6.40249 71.8977 6.72899 71.994C7.54499 72.186 8.37699 72.312 9.20399 72.464H11.545C14.0891 72.237 16.5287 71.3448 18.619 69.877C21.8998 67.7076 24.2348 64.3737 25.152 60.549C25.8824 57.7218 25.8479 54.7513 25.052 51.942C24.9727 51.6753 24.8817 51.4143 24.779 51.159C24.679 50.902 24.561 50.652 24.422 50.332L29.728 47.2809L29.807 47.349C29.707 47.665 29.607 47.979 29.521 48.298C28.8333 50.5773 28.5292 52.955 28.621 55.334C28.731 57.861 29.5488 60.3062 30.981 62.391C31.2972 62.7977 31.7011 63.1278 32.1626 63.3568C32.6241 63.5857 33.1314 63.7074 33.6465 63.713C34.1616 63.7186 34.6714 63.6078 35.1378 63.389C35.6041 63.1701 36.0151 62.8488 36.34 62.449C36.8079 61.842 37.2183 61.1929 37.566 60.5099C38.431 58.7229 39.232 56.91 40.059 55.1L40.203 54.77C40.144 55.625 40.074 56.376 40.042 57.128C39.9556 58.2968 40.0986 59.4711 40.463 60.585C40.5782 61.0544 40.8332 61.4778 41.1943 61.7992C41.5553 62.1206 42.0054 62.3248 42.485 62.3849C42.8321 62.4059 43.1798 62.3554 43.5067 62.2365C43.8335 62.1177 44.1324 61.933 44.385 61.694C45.2375 61.0203 45.9442 60.1803 46.462 59.225C47.929 56.531 49.435 53.8529 50.762 51.0909C52.2 48.1039 53.462 45.029 54.794 41.991L55.015 41.452C55.331 42.692 55.551 43.9069 55.956 45.0519C56.4369 46.3858 57.0007 47.6884 57.644 48.952C57.7972 49.1783 57.8661 49.4512 57.8387 49.7231C57.8113 49.9951 57.6893 50.2487 57.494 50.4399C55.753 52.5399 54.042 54.6639 52.33 56.7859C51.9422 57.2484 51.5841 57.7351 51.258 58.243C51.0666 58.5662 50.9409 58.924 50.888 59.296C50.8348 59.6382 50.9162 59.9878 51.1151 60.2714C51.314 60.555 51.615 60.7505 51.955 60.817C52.6412 60.9648 53.3448 61.015 54.045 60.9659C56.394 60.7942 58.6437 59.9484 60.524 58.53C61.6703 57.7319 62.5427 56.5998 63.0223 55.2879C63.5019 53.976 63.5653 52.5482 63.204 51.199C63.0183 50.3916 62.774 49.5988 62.473 48.827C62.4013 48.6791 62.3727 48.514 62.3904 48.3506C62.408 48.1872 62.4713 48.0321 62.573 47.903C64.5301 45.051 66.2889 42.068 67.837 38.975C67.9005 38.842 67.9797 38.717 68.073 38.603C68.5151 41.2574 69.4158 43.8145 70.735 46.16C70.035 46.838 69.335 47.453 68.704 48.131C67.2643 49.565 66.1647 51.3037 65.486 53.219C65.1728 54.0575 65.0509 54.9553 65.129 55.847C65.1496 56.1698 65.2407 56.4842 65.3958 56.768C65.551 57.0518 65.7665 57.2982 66.0271 57.4898C66.2877 57.6814 66.5871 57.8136 66.9043 57.877C67.2215 57.9404 67.5487 57.9336 67.863 57.857C70.8065 57.2784 73.4413 55.6544 75.281 53.285C75.8535 52.5058 76.2296 51.6 76.3774 50.6444C76.5252 49.6889 76.4403 48.7117 76.13 47.796C75.985 47.265 75.813 46.743 75.63 46.134C76.364 45.906 77.079 45.634 77.819 45.464C81.5825 44.5477 85.5341 44.7789 89.165 46.128C91.3179 46.8492 93.0962 48.3959 94.109 50.428C94.7463 51.5722 94.9051 52.9221 94.5506 54.183C94.1961 55.4439 93.3572 56.5134 92.217 57.158C91.9753 57.291 91.7472 57.4475 91.536 57.625C91.4752 57.6955 91.4298 57.7779 91.4026 57.8669C91.3754 57.9559 91.367 58.0495 91.378 58.142C91.394 58.237 91.645 58.3559 91.789 58.3539C92.5586 58.2872 93.289 57.9852 93.881 57.489C94.67 56.9987 95.3436 56.3436 95.8557 55.5686C96.3679 54.7936 96.7063 53.917 96.848 52.999L96.897 52.8539L96.837 51.599C96.813 51.526 96.855 51.455 96.849 51.399C96.6702 50.0671 96.2211 48.7857 95.5293 47.6335C94.8375 46.4814 93.9176 45.4828 92.826 44.699C90.3183 42.8233 87.2764 41.799 84.145 41.7759C81.5813 41.6656 79.0208 42.0597 76.609 42.936C75.917 43.187 75.231 43.484 74.535 43.764C74.442 43.595 74.341 43.433 74.259 43.264C73.4083 41.8632 72.8083 40.3248 72.486 38.718C72.2702 37.5417 72.2638 36.3365 72.467 35.158C72.739 34.024 73.094 32.91 73.429 31.792C73.4835 31.6846 73.5137 31.5666 73.5175 31.4462C73.5212 31.3259 73.4984 31.2062 73.4507 31.0956C73.403 30.9851 73.3315 30.8864 73.2413 30.8066C73.1511 30.7268 73.0445 30.6679 72.929 30.634C72.7375 30.5381 72.533 30.4707 72.322 30.434C70.9856 30.2445 69.624 30.3468 68.331 30.7339C68.1077 30.7783 67.9028 30.8884 67.7424 31.05C67.5821 31.2116 67.4736 31.4174 67.431 31.641C67.372 31.935 67.253 32.217 67.169 32.507C66.8947 33.7327 66.5142 34.9322 66.032 36.092C64.648 38.974 63.067 41.748 61.45 44.501C61.275 44.801 61.09 45.09 60.87 45.45C60.2428 44.3571 59.7852 43.1753 59.513 41.9449C59.227 40.5507 59.2206 39.1137 59.494 37.717C59.756 36.671 60.094 35.643 60.412 34.611C60.4598 34.522 60.4883 34.4239 60.4957 34.3231C60.5031 34.2224 60.4892 34.1212 60.4548 34.0262C60.4205 33.9312 60.3665 33.8445 60.2964 33.7717C60.2263 33.699 60.1417 33.6418 60.048 33.6039C59.8236 33.465 59.5754 33.3687 59.316 33.3199C57.9311 33.1089 56.5161 33.2247 55.184 33.658C54.9927 33.7163 54.8206 33.8249 54.6857 33.9725C54.5507 34.1201 54.4579 34.3012 54.417 34.4969C54.0867 35.7853 53.6772 37.052 53.191 38.29C51.05 43.198 48.848 48.081 46.648 52.963C46.189 53.982 45.648 54.963 45.133 55.963C44.9858 56.2091 44.8235 56.4459 44.647 56.672C44.5438 56.5755 44.4794 56.4446 44.466 56.304C44.4242 55.6771 44.4406 55.0478 44.515 54.424C44.8823 52.5893 45.2883 50.7633 45.733 48.946C46.096 47.446 46.518 45.956 46.92 44.465C47.0078 44.2348 47.0336 43.9857 46.9948 43.7424C46.956 43.4992 46.854 43.2704 46.699 43.079C46.3677 42.7327 45.9267 42.512 45.451 42.4544C44.9753 42.3968 44.4943 42.5058 44.09 42.7629L43.76 42.95L43.824 42.418C44.0179 41.2882 43.9756 40.1306 43.7 39.0179C43.5693 38.3734 43.2085 37.7985 42.685 37.4005C42.1615 37.0025 41.511 36.8086 40.855 36.855C40.1661 36.8684 39.4845 36.9982 38.839 37.239C36.2857 38.313 34.0731 40.0623 32.439 42.299C32.2785 42.5018 32.0802 42.6716 31.855 42.799C29.622 44.037 27.383 45.259 25.144 46.486L22.653 47.852C21.985 47.215 21.377 46.5519 20.688 45.9919C18.588 44.2759 16.445 42.602 14.326 40.905C12.3953 39.4705 10.6811 37.7657 9.23599 35.843C8.1737 34.4079 7.55898 32.6911 7.46899 30.908C7.41131 28.6297 8.02701 26.385 9.239 24.455C10.802 21.9828 12.7907 19.8072 15.113 18.029C17.537 16.1048 20.1207 14.3909 22.836 12.9059C26.5784 10.7284 30.552 8.97495 34.683 7.67798C38.8994 6.30011 43.3518 5.79351 47.77 6.18896C49.5287 6.34109 51.2402 6.83784 52.807 7.65094C54.0279 8.22721 54.9767 9.25575 55.453 10.519C55.8766 11.8184 55.9199 13.2118 55.578 14.535C54.8879 17.1786 53.5038 19.5898 51.569 21.519C48.5073 24.729 44.7043 27.1382 40.494 28.535C38.0601 29.3874 35.5279 29.9274 32.958 30.142C30.8744 30.3523 28.7701 30.0989 26.796 29.4C25.4841 28.9406 24.3141 28.148 23.401 27.1C23.236 26.907 23.024 26.7 22.716 26.879C22.5859 26.9495 22.4873 27.0667 22.4402 27.207C22.3931 27.3473 22.4009 27.5002 22.462 27.6349C22.6083 28.1267 22.8054 28.602 23.05 29.053C23.737 30.0979 24.6571 30.9691 25.738 31.598C27.7616 32.7958 30.0694 33.4291 32.421 33.4319C35.9823 33.5455 39.539 33.0922 42.958 32.089C47.8247 30.8298 52.2187 28.179 55.602 24.461C58.5456 21.4303 60.4207 17.5224 60.943 13.33C61.217 11.2322 60.8671 9.10014 59.937 7.19995C58.8571 5.15907 57.1667 3.50646 55.102 2.47296C52.1772 0.88719 48.9098 0.038389 45.583 0H42.259C38.2461 0.154307 34.2911 1.00951 30.573 2.52698C27.7097 3.5763 24.9085 4.7879 22.183 6.15594C16.2024 8.96297 10.785 12.8394 6.198 17.594C3.87992 19.9736 2.08396 22.8107 0.924988 25.924C0.591654 26.8733 0.305993 27.8369 0.0679932 28.8149M21.551 56.606C21.4269 58.241 20.9763 59.8347 20.2257 61.2926C19.4751 62.7505 18.4398 64.0431 17.181 65.094C15.7911 66.387 14.0597 67.2546 12.192 67.594C11.4996 67.7479 10.7774 67.6975 10.113 67.449C9.71128 67.2579 9.37978 66.9454 9.16534 66.5556C8.95091 66.1658 8.86438 65.7186 8.918 65.277C8.94198 63.8622 9.34759 62.4803 10.092 61.277C11.0437 59.7162 12.2858 58.3522 13.751 57.259C16.0077 55.4714 18.3988 53.8603 20.903 52.4399L21.091 52.363C21.4854 53.7407 21.641 55.1757 21.551 56.606ZM40.968 41.655C40.7954 42.7575 40.5519 43.8477 40.239 44.9189C39.0958 48.5889 37.7337 52.187 36.16 55.694C35.8428 56.3355 35.4889 56.9582 35.1 57.559C35.0389 57.6541 34.9656 57.7408 34.882 57.817C34.436 58.258 34.013 58.234 33.788 57.658C33.538 56.9762 33.3495 56.2734 33.225 55.558C33.1594 55.0727 33.126 54.5837 33.125 54.094C33.1848 50.7041 34.1827 47.3971 36.008 44.54C36.6729 43.2956 37.6232 42.2264 38.781 41.42C39.1639 41.1818 39.5783 40.9984 40.012 40.875C40.668 40.691 41.071 40.9939 40.962 41.6509L40.968 41.655ZM54.213 58.5309L58.974 52.972C59.168 55.037 55.661 59.1579 54.211 58.5309H54.213ZM69.413 54.79C69.077 54.983 68.713 55.122 68.365 55.3C68.049 55.464 67.945 55.3 67.936 55.027C67.9315 54.8391 67.9557 54.6515 68.008 54.4709C68.6205 52.2387 69.8672 50.232 71.597 48.694L71.72 48.631C72.1249 49.7641 72.1161 51.0038 71.6953 52.1311C71.2744 53.2584 70.4684 54.2005 69.42 54.791L69.413 54.79Z" fill="#CB6699"/>
</svg>
