<svg width="70" height="70" viewBox="0 0 70 70" fill="none" xmlns="http://www.w3.org/2000/svg">
    <path d="M62.9909 4.06549C62.0306 6.36847 60.7877 8.54314 59.2909 10.5395C56.0875 7.21912 52.2504 4.57545 48.0066 2.7651C43.7629 0.954745 39.1991 0.0145345 34.5854 0.000167188C29.9717 -0.0142002 25.402 0.897568 21.1471 2.68146C16.8922 4.46534 13.0386 7.08506 9.81467 10.3854C6.59069 13.6858 4.0619 17.5996 2.3781 21.8951C0.694308 26.1906 -0.110238 30.7804 0.0121295 35.3924C0.134497 40.0045 1.18129 44.5452 3.09049 48.7453C4.99969 52.9455 7.73246 56.7197 11.1269 59.8445L12.4079 60.9825C17.2678 65.0804 23.1669 67.7534 29.4522 68.7055C35.7375 69.6575 42.1636 68.8515 48.0191 66.3767C53.8745 63.9018 58.9308 59.8547 62.628 54.6835C66.3253 49.5123 68.5192 43.4187 68.9669 37.0775C69.9639 28.3975 67.3269 17.2985 62.9909 4.06549ZM16.1049 60.1295C15.7391 60.5789 15.2483 60.9097 14.6945 61.0803C14.1407 61.2508 13.5488 61.2534 12.9935 61.0876C12.4383 60.9219 11.9446 60.5953 11.5749 60.1491C11.2052 59.7029 10.9761 59.1571 10.9164 58.5807C10.8568 58.0043 10.9693 57.4232 11.2398 56.9108C11.5104 56.3983 11.9267 55.9776 12.4362 55.7017C12.9458 55.4258 13.5257 55.3071 14.1027 55.3606C14.6797 55.4142 15.2278 55.6375 15.6779 56.0025C16.2671 56.5029 16.6403 57.2114 16.7199 57.9803C16.7994 58.7492 16.5791 59.5191 16.1049 60.1295ZM62.7779 49.8125C54.3109 61.1245 36.0979 57.2825 24.5009 57.8525C24.5009 57.8525 22.4379 57.9945 20.3739 58.2795C20.3739 58.2795 21.1569 57.9235 22.1529 57.5685C30.3349 54.7225 34.1769 54.1535 39.1529 51.5925C48.4729 46.8255 57.7939 36.3675 59.6429 25.5525C56.0899 35.9395 45.2749 44.9045 35.4569 48.5325C28.6979 51.0225 16.5269 53.4415 16.5269 53.4415L16.0269 53.1565C7.7809 49.1045 7.4959 31.1725 22.5789 25.4045C29.1959 22.8435 35.4569 24.2665 42.6429 22.5585C50.2559 20.7795 59.0779 15.0885 62.6349 7.61749C66.6199 19.6465 71.4579 38.2875 62.7779 49.8125Z" fill="#6DB33F"/>
</svg>
