<svg width="73" height="72" viewBox="0 0 73 72" fill="none" xmlns="http://www.w3.org/2000/svg">
    <path d="M69.8589 7.62655L54.9459 0.446554C54.1037 0.0409076 53.1562 -0.0928902 52.2346 0.063696C51.313 0.220282 50.4629 0.6595 49.8019 1.32055L0.985886 45.8306C0.675341 46.1131 0.427239 46.4574 0.257469 46.8415C0.0876995 47.2255 0 47.6407 0 48.0606C0 48.4804 0.0876995 48.8956 0.257469 49.2797C0.427239 49.6637 0.675341 50.008 0.985886 50.2906L4.97388 53.9156C5.49491 54.389 6.16516 54.6654 6.8685 54.6966C7.57184 54.7278 8.26394 54.512 8.82488 54.0866L67.6109 9.48655C68.0556 9.15297 68.5843 8.94954 69.138 8.89896C69.6916 8.84838 70.2485 8.95266 70.7463 9.20012C71.2441 9.44759 71.6634 9.82852 71.9573 10.3004C72.2513 10.7723 72.4083 11.3166 72.4109 11.8725V11.6995C72.4113 10.8494 72.1721 10.0164 71.7207 9.29601C71.2693 8.57562 70.624 7.99701 69.8589 7.62655Z" fill="#0065A9"/>
    <path d="M69.8589 64.3735L54.9469 71.5535C54.1046 71.959 53.1572 72.0927 52.2356 71.9362C51.3141 71.7796 50.4639 71.3405 49.8029 70.6795L0.985886 26.1695C0.675341 25.887 0.427239 25.5426 0.257469 25.1586C0.0876995 24.7746 0 24.3594 0 23.9395C0 23.5197 0.0876995 23.1044 0.257469 22.7204C0.427239 22.3364 0.675341 21.9921 0.985886 21.7095L4.97688 18.0845C5.4979 17.611 6.16816 17.3347 6.8715 17.3035C7.57484 17.2723 8.26694 17.4881 8.82788 17.9135L67.6139 62.5135C68.0586 62.8471 68.5873 63.0506 69.141 63.1011C69.6946 63.1517 70.2514 63.0474 70.7493 62.8C71.2471 62.5525 71.6664 62.1716 71.9603 61.6997C72.2543 61.2278 72.4113 60.6835 72.4139 60.1275V60.3005C72.4138 61.1518 72.1735 61.9858 71.7207 62.7067C71.2678 63.4275 70.6208 64.006 69.8539 64.3755L69.8589 64.3735Z" fill="#007ACC"/>
    <path d="M54.9467 71.5545C54.1042 71.9595 53.1567 72.0927 52.2352 71.9358C51.3137 71.7788 50.4637 71.3395 49.8027 70.6785C50.1734 71.0488 50.6455 71.301 51.1594 71.4031C51.6734 71.5052 52.206 71.4526 52.6901 71.252C53.1741 71.0515 53.5879 70.7119 53.879 70.2763C54.1701 69.8406 54.3256 69.3285 54.3257 68.8045V3.19551C54.3256 2.67155 54.1701 2.15939 53.879 1.72376C53.5879 1.28812 53.1741 0.948561 52.6901 0.748002C52.206 0.547443 51.6734 0.494874 51.1594 0.596955C50.6455 0.699036 50.1734 0.951185 49.8027 1.32152C50.4637 0.660528 51.3137 0.221199 52.2352 0.0642708C53.1567 -0.0926578 54.1042 0.0405573 54.9467 0.445512L69.8557 7.61652C70.6234 7.98564 71.2712 8.56403 71.7247 9.28513C72.1781 10.0062 72.4187 10.8407 72.4187 11.6925V60.3075C72.4187 61.1593 72.1781 61.9938 71.7247 62.7149C71.2712 63.436 70.6234 64.0144 69.8557 64.3835L54.9457 71.5535L54.9467 71.5545Z" fill="#1F9CF0"/>
    <path opacity="0.25" fill-rule="evenodd" clip-rule="evenodd" d="M51.3239 71.6925C51.8997 71.9173 52.5156 72.0211 53.1333 71.9973C53.7509 71.9736 54.3571 71.8229 54.9139 71.5545L69.8139 64.3845C70.5814 64.0153 71.229 63.4368 71.6823 62.7157C72.1355 61.9946 72.3759 61.1602 72.3759 60.3085V11.6925C72.376 10.8407 72.1356 10.0061 71.6824 9.28486C71.2291 8.5636 70.5815 7.98495 69.8139 7.61552L54.9139 0.446528C54.072 0.0413988 53.125 -0.0920254 52.204 0.0647376C51.2829 0.221501 50.4334 0.660698 49.7729 1.32153L21.2469 27.3455L8.82191 17.9145C8.26151 17.4891 7.56988 17.2733 6.867 17.3045C6.16412 17.3358 5.49436 17.6121 4.97391 18.0855L0.987907 21.7105C0.677636 21.9933 0.429778 22.3376 0.260185 22.7216C0.0905924 23.1056 0.00299835 23.5208 0.00299835 23.9405C0.00299835 24.3603 0.0905924 24.7754 0.260185 25.1594C0.429778 25.5434 0.677636 25.8878 0.987907 26.1705L11.7579 36.0005L0.984909 45.8305C0.674638 46.1133 0.42678 46.4576 0.257187 46.8416C0.087594 47.2256 0 47.6408 0 48.0605C0 48.4803 0.087594 48.8954 0.257187 49.2794C0.42678 49.6634 0.674638 50.0078 0.984909 50.2905L4.96991 53.9155C5.49043 54.3892 6.16039 54.6657 6.86349 54.6969C7.56659 54.7282 8.25844 54.5122 8.81891 54.0865L21.2439 44.6545L49.7719 70.6795C50.213 71.1215 50.7412 71.4668 51.3229 71.6935L51.3239 71.6925ZM54.2939 19.5705L32.6499 36.0005L54.2939 52.4295V19.5705Z" fill="white"/>
</svg>
