<svg width="72" height="72" viewBox="0 0 72 72" fill="none" xmlns="http://www.w3.org/2000/svg">
    <mask id="mask0_148_660" style="mask-type:luminance" maskUnits="userSpaceOnUse" x="0" y="0" width="72" height="72">
        <path d="M0 0H72V72H0V0Z" fill="white"/>
    </mask>
    <g mask="url(#mask0_148_660)">
        <mask id="mask1_148_660" style="mask-type:luminance" maskUnits="userSpaceOnUse" x="0" y="0" width="72" height="72">
            <path d="M0 0H72V72H0V0Z" fill="white"/>
        </mask>
        <g mask="url(#mask1_148_660)">
            <path d="M13.2 60.899L1.20003 51.899C0.825933 51.621 0.52242 51.2589 0.313976 50.842C0.105531 50.4251 -0.00200891 49.9651 3.07263e-05 49.499V22.499C-0.00208823 22.0329 0.105417 21.5728 0.313868 21.1559C0.522319 20.739 0.825875 20.377 1.20003 20.099L13.2 11.099C12.8776 11.4017 12.6339 11.7785 12.4901 12.1968C12.3463 12.615 12.3068 13.062 12.375 13.499V58.499C12.3068 58.936 12.3463 59.383 12.4901 59.8012C12.6339 60.2195 12.8776 60.5963 13.2 60.899Z" fill="url(#paint0_linear_148_660)"/>
            <path d="M70.6642 12.496C70.1698 12.1711 69.5908 11.999 68.9992 12.001C68.6159 11.9978 68.2358 12.0703 67.8806 12.2143C67.5254 12.3583 67.2021 12.5709 66.9292 12.84L66.7202 13.05L53.9692 25.276L42.7802 36.001L29.5342 48.701L17.2802 60.45L17.0702 60.661C16.7975 60.9305 16.4743 61.1435 16.119 61.2876C15.7638 61.4318 15.3836 61.5043 15.0002 61.501C14.3512 61.5 13.72 61.2896 13.2002 60.901L1.2002 51.901C1.81005 52.3582 2.57107 52.5661 3.32867 52.4825C4.08628 52.399 4.78367 52.0301 5.27919 51.451L12.0002 43.651L18.6002 35.986L29.5352 23.296L48.6872 1.05C48.9654 0.720508 49.3123 0.455807 49.7035 0.274433C50.0948 0.0930596 50.5209 -0.000602918 50.9522 2.9204e-06C51.5442 -0.000364074 52.1233 0.173528 52.6172 0.500003L70.6642 12.496Z" fill="url(#paint1_linear_148_660)"/>
            <path d="M70.6642 59.5049L52.6642 71.5049C52.0519 71.9047 51.3159 72.0701 50.5915 71.9709C49.867 71.8717 49.2026 71.5145 48.7202 70.9649L29.5342 48.7049L18.5992 35.9859L11.9992 28.3359L5.27822 20.5359C4.77863 19.9621 4.0805 19.5985 3.32394 19.518C2.56738 19.4375 1.80837 19.6461 1.19922 20.1019L13.1992 11.1019C13.719 10.7134 14.3503 10.503 14.9992 10.5019C15.3826 10.4986 15.7628 10.5712 16.1181 10.7153C16.4733 10.8595 16.7966 11.0724 17.0692 11.3419L17.2792 11.5519L29.5342 23.2959L42.7802 35.9959L53.9872 46.7409L66.7222 58.9509L66.9312 59.1619C67.2041 59.431 67.5274 59.6437 67.8826 59.7876C68.2378 59.9316 68.618 60.0041 69.0012 60.0009C69.5926 60.0011 70.171 59.8273 70.6642 59.5009V59.5049Z" fill="url(#paint2_linear_148_660)"/>
            <path d="M72.0011 15V57C72.0008 57.4944 71.8787 57.981 71.6457 58.417C71.4127 58.8531 71.0759 59.225 70.6651 59.5L52.6651 71.5C53.0756 71.2247 53.4121 70.8527 53.6449 70.4168C53.8777 69.9808 53.9997 69.4942 54.0001 69V3C53.9928 2.50207 53.863 2.0136 53.6224 1.57762C53.3817 1.14165 53.0375 0.771573 52.6201 0.5L70.6651 12.5C71.0749 12.7761 71.4108 13.1482 71.6437 13.584C71.8766 14.0198 71.9993 14.5059 72.0011 15Z" fill="url(#paint3_linear_148_660)"/>
        </g>
    </g>
    <defs>
        <linearGradient id="paint0_linear_148_660" x1="6.60002" y1="11.099" x2="6.60002" y2="60.899" gradientUnits="userSpaceOnUse">
            <stop stop-color="#553C81"/>
            <stop offset="0.499" stop-color="#5E438F"/>
            <stop offset="1" stop-color="#583F86"/>
        </linearGradient>
        <linearGradient id="paint1_linear_148_660" x1="56.0768" y1="3.81307" x2="8.64367" y2="65.3898" gradientUnits="userSpaceOnUse">
            <stop stop-color="#533B7B"/>
            <stop offset="0.184" stop-color="#7151AA"/>
            <stop offset="0.357" stop-color="#7252AA"/>
            <stop offset="0.494" stop-color="#533B7B"/>
            <stop offset="0.571" stop-color="#4A356E"/>
            <stop offset="0.688" stop-color="#6C46AE"/>
            <stop offset="1" stop-color="#7252AA"/>
        </linearGradient>
        <linearGradient id="paint2_linear_148_660" x1="6.2007" y1="11.6088" x2="53.2958" y2="71.8035" gradientUnits="userSpaceOnUse">
            <stop stop-color="#AC7DE0"/>
            <stop offset="1" stop-color="#8763B9"/>
        </linearGradient>
        <linearGradient id="paint3_linear_148_660" x1="62.3106" y1="0.5" x2="62.3106" y2="71.5" gradientUnits="userSpaceOnUse">
            <stop stop-color="#B785DF"/>
            <stop offset="0.505" stop-color="#CB95F8"/>
            <stop offset="1" stop-color="#AE7FD9"/>
        </linearGradient>
    </defs>
</svg>
