<svg width="72" height="72" viewBox="0 0 72 72" fill="none" xmlns="http://www.w3.org/2000/svg">
	<path d="M9.669 65.109L0 7.50903L18 0.103027L29.417 6.89203L39.909 1.23403L61.817 9.66903L49.474 72.003L9.669 65.109Z" fill="url(#paint0_linear_148_696)"/>
	<path d="M72.0001 24.377L62.7421 1.44L45.8741 0L19.8511 24.994L26.8451 57.188L39.9081 66.445L72.0001 47.314L64.0801 32.6L72.0001 24.377Z" fill="url(#paint1_linear_148_696)"/>
	<path d="M57.6001 20.98L64.0801 32.603L72.0001 24.38L66.2401 10.08L57.6001 20.98Z" fill="url(#paint2_linear_148_696)"/>
	<path d="M13.7832 13.783H58.2172V58.217H13.7832V13.783Z" fill="black"/>
	<path d="M18 49.886H34.663V52.661H18V49.886Z" fill="white"/>
	<path d="M39.8062 35.2801L42.1721 32.4C43.6653 33.7738 45.5961 34.5753 47.6231 34.663C49.2691 34.663 50.1942 34.0461 50.1942 32.9141V32.814C50.1942 31.785 49.5771 31.271 46.4941 30.448C42.7941 29.522 40.5282 28.4941 40.5282 24.7911V24.691C40.5282 21.297 43.2022 19.137 46.9052 19.137C49.379 19.0836 51.7893 19.9236 53.6942 21.503L51.6371 24.589C50.283 23.5079 48.6342 22.8604 46.9062 22.7311C45.3632 22.7311 44.5402 23.4511 44.5402 24.3771V24.477C44.5402 25.711 45.3632 26.1231 48.4492 26.9461C52.1492 27.9751 54.2091 29.3121 54.2091 32.5001V32.6C54.2091 36.3 51.4321 38.3601 47.5231 38.3601C44.6692 38.2701 41.9377 37.1799 39.8062 35.2801Z" fill="white"/>
	<path d="M36.2052 19.543L33.4282 30.243L30.3432 19.543H27.2572L24.0682 30.243L21.2912 19.543H17.0752L22.3212 37.954H25.7152L28.8012 27.254L31.7842 37.954H35.2842L40.5262 19.543H36.2052Z" fill="white"/>
	<defs>
		<linearGradient id="paint0_linear_148_696" x1="25.7777" y1="1.46913" x2="50.2155" y2="66.3799" gradientUnits="userSpaceOnUse">
			<stop offset="0.285" stop-color="#00CDD7"/>
			<stop offset="0.941" stop-color="#2086D7"/>
		</linearGradient>
		<linearGradient id="paint1_linear_148_696" x1="31.5846" y1="10.0332" x2="71.9542" y2="46.4304" gradientUnits="userSpaceOnUse">
			<stop offset="0.14" stop-color="#FFF045"/>
			<stop offset="0.366" stop-color="#00CDD7"/>
		</linearGradient>
		<linearGradient id="paint2_linear_148_696" x1="62.8273" y1="15.7332" x2="71.0115" y2="27.6021" gradientUnits="userSpaceOnUse">
			<stop offset="0.285" stop-color="#00CDD7"/>
			<stop offset="0.941" stop-color="#2086D7"/>
		</linearGradient>
	</defs>
</svg>
